SplineFontDB: 3.2
FontName: CatyuBasic
FullName: CatyuBasic
FamilyName: CatyuBasic
Weight: Book
Copyright: Copyright (c) 2021, Craig Cornelius
Version: 001.000
ItalicAngle: 0
UnderlinePosition: -102.4
UnderlineWidth: 51.2
Ascent: 819
Descent: 205
InvalidEm: 0
sfntRevision: 0x00010000
LayerCount: 2
Layer: 0 1 "Back" 1
Layer: 1 1 "Fore" 0
XUID: [1021 341 221541093 1985200]
StyleMap: 0x0000
FSType: 0
OS2Version: 4
OS2_WeightWidthSlopeOnly: 0
OS2_UseTypoMetrics: 1
CreationTime: 1621133145
ModificationTime: 1621468891
PfmFamily: 17
TTFWeight: 400
TTFWidth: 5
LineGap: 92
VLineGap: 0
Panose: 2 0 5 9 0 0 0 0 0 0
OS2TypoAscent: 819
OS2TypoAOffset: 0
OS2TypoDescent: -205
OS2TypoDOffset: 0
OS2TypoLinegap: 92
OS2WinAscent: 793
OS2WinAOffset: 0
OS2WinDescent: 227
OS2WinDOffset: 0
HheadAscent: 793
HheadAOffset: 0
HheadDescent: -227
HheadDOffset: 0
OS2SubXSize: 666
OS2SubYSize: 717
OS2SubXOff: 0
OS2SubYOff: 143
OS2SupXSize: 666
OS2SupYSize: 717
OS2SupXOff: 0
OS2SupYOff: 492
OS2StrikeYSize: 50
OS2StrikeYPos: 264
OS2CapHeight: 743
OS2XHeight: 727
OS2Vendor: 'PfEd'
OS2CodePages: 00000001.00000000
OS2UnicodeRanges: 00000001.00000000.00000000.00000000
Lookup: 260 0 0 "Catyu consonant lengther" { "Catyu consonant lengther-1"  } []
MarkAttachClasses: 1
DEI: 91125
ShortTable: cvt  2
  33
  633
EndShort
ShortTable: maxp 16
  1
  0
  43
  99
  6
  0
  0
  2
  0
  1
  1
  0
  64
  46
  0
  0
EndShort
LangName: 1033 "" "" "Regular" "FontForge 2.0 : CatyuBasic : 17-5-2021"
GaspTable: 1 65535 2 0
Encoding: UnicodeBmp
UnicodeInterp: none
NameList: AGL For New Fonts
DisplaySize: -72
AntiAlias: 1
FitToEm: 0
WinInfo: 72 8 8
BeginPrivate: 0
EndPrivate
AnchorClass2: "top" "Catyu consonant lengther-1"
BeginChars: 65539 63

StartChar: .notdef
Encoding: 65536 -1 0
Width: 1024
Flags: W
LayerCount: 2
Fore
SplineSet
34 0 m 1,0,-1
 34 682 l 1,1,-1
 305 682 l 1,2,-1
 305 0 l 1,3,-1
 34 0 l 1,0,-1
68 34 m 1,4,-1
 271 34 l 1,5,-1
 271 648 l 1,6,-1
 68 648 l 1,7,-1
 68 34 l 1,4,-1
EndSplineSet
Validated: 1
EndChar

StartChar: exclam
Encoding: 33 33 3
Width: 489
Flags: W
LayerCount: 2
Fore
SplineSet
186 356 m 0,0,1
 188 390 188 390 213.5 412 c 128,-1,2
 239 434 239 434 272 432 c 0,3,4
 301 431 301 431 316.5 405.5 c 128,-1,5
 332 380 332 380 330 348 c 0,6,7
 329 325 329 325 308.5 313 c 128,-1,8
 288 301 288 301 262 303 c 0,9,10
 230 305 230 305 207 318 c 128,-1,11
 184 331 184 331 186 356 c 0,0,1
74 172 m 0,12,13
 76 206 76 206 101 228 c 128,-1,14
 126 250 126 250 160 248 c 0,15,16
 189 247 189 247 204 221.5 c 128,-1,17
 219 196 219 196 217 164 c 0,18,19
 216 141 216 141 195.5 129 c 128,-1,20
 175 117 175 117 150 119 c 0,21,22
 118 121 118 121 95 134 c 128,-1,23
 72 147 72 147 74 172 c 0,12,13
289 172 m 0,24,25
 291 206 291 206 316 228 c 128,-1,26
 341 250 341 250 375 248 c 0,27,28
 404 247 404 247 419 221.5 c 128,-1,29
 434 196 434 196 432 164 c 0,30,31
 431 141 431 141 410.5 129 c 128,-1,32
 390 117 390 117 365 119 c 0,33,34
 333 121 333 121 310 134 c 128,-1,35
 287 147 287 147 289 172 c 0,24,25
EndSplineSet
Validated: 33
EndChar

StartChar: parenleft
Encoding: 40 40 4
Width: 489
Flags: W
LayerCount: 2
Fore
SplineSet
162 288 m 0,0,1
 228 348 228 348 236 413 c 0,2,3
 245 484 245 484 210 538 c 0,4,5
 156 624 156 624 162 635 c 0,6,7
 214 726 214 726 279 702 c 0,8,9
 397 658 397 658 358 618 c 0,10,11
 344 603 344 603 343 607 c 0,12,13
 335 662 335 662 297 657 c 0,14,15
 201 643 201 643 222 603 c 0,16,17
 248 556 248 556 259 493 c 0,18,19
 268 439 268 439 254 375 c 0,20,21
 238 301 238 301 264 303 c 0,22,23
 329 308 329 308 377 398 c 1,24,25
 336 321 336 321 402 148 c 1,26,27
 469 -1 l 1,28,29
 357 -89 l 1,30,31
 225 -171 225 -171 136 -129 c 0,32,33
 26 -77 26 -77 80 -8 c 0,34,35
 147 78 147 78 139 61 c 0,36,37
 100 -30 100 -30 106 -41 c 0,38,39
 175 -144 175 -144 316 -45 c 0,40,41
 404 15 404 15 355 143 c 0,42,43
 305 272 305 272 257 263 c 0,44,45
 225 257 225 257 190 266 c 0,46,47
 151 277 151 277 162 288 c 0,0,1
49 298 m 0,48,49
 49 315 49 315 62 326 c 0,50,51
 72 335 72 335 86 335 c 0,52,53
 89 335 89 335 92 334 c 0,54,55
 106 332 106 332 115 320.5 c 128,-1,56
 124 309 124 309 123 295 c 0,57,58
 122 282 122 282 111.5 272.5 c 128,-1,59
 101 263 101 263 88 262 c 0,60,61
 73 261 73 261 61 271 c 0,62,63
 57 274 57 274 54.5 279 c 128,-1,64
 52 284 52 284 50.5 288.5 c 128,-1,65
 49 293 49 293 49 298 c 0,48,49
EndSplineSet
Validated: 33
EndChar

StartChar: period
Encoding: 46 46 5
Width: 217
Flags: W
LayerCount: 2
Fore
SplineSet
122 209 m 0,0,1
 57 205 57 205 60 152 c 0,2,3
 62 112 62 112 123 114 c 0,4,5
 167 115 167 115 165 154 c 0,6,7
 162 212 162 212 122 209 c 0,0,1
41 152 m 0,8,9
 43 186 43 186 68 207.5 c 128,-1,10
 93 229 93 229 127 227 c 0,11,12
 156 226 156 226 171 200.5 c 128,-1,13
 186 175 186 175 184 143 c 0,14,15
 183 120 183 120 162.5 108 c 128,-1,16
 142 96 142 96 117 98 c 0,17,18
 85 100 85 100 62 113.5 c 128,-1,19
 39 127 39 127 41 152 c 0,8,9
EndSplineSet
Validated: 33
EndChar

StartChar: question
Encoding: 63 63 6
Width: 489
Flags: W
LayerCount: 2
Fore
SplineSet
507 688 m 0,0,1
 436 785 436 785 275 664 c 0,2,3
 80 517 80 517 219 394 c 0,4,5
 350 279 350 279 462 440 c 0,6,7
 572 599 572 599 507 688 c 0,0,1
550 727 m 0,8,9
 670 583 670 583 489 420 c 0,10,11
 284 235 284 235 165 379 c 0,12,13
 52 514 52 514 257 698 c 0,14,15
 437 861 437 861 550 727 c 0,8,9
289 172 m 0,16,17
 291 206 291 206 316 228 c 128,-1,18
 341 250 341 250 375 248 c 0,19,20
 404 247 404 247 419 221.5 c 128,-1,21
 434 196 434 196 432 164 c 0,22,23
 431 141 431 141 410.5 129 c 128,-1,24
 390 117 390 117 365 119 c 0,25,26
 333 121 333 121 310 134 c 128,-1,27
 287 147 287 147 289 172 c 0,16,17
EndSplineSet
Validated: 33
EndChar

StartChar: C
Encoding: 67 67 7
Width: 1024
Flags: W
AnchorPoint: "top" 497 761 basechar 0
LayerCount: 2
Fore
SplineSet
588 -84 m 4,0,1
 590 -50 590 -50 615 -28 c 132,-1,2
 640 -6 640 -6 674 -8 c 4,3,4
 703 -9 703 -9 718 -34.5 c 132,-1,5
 733 -60 733 -60 731 -92 c 4,6,7
 730 -115 730 -115 709.5 -127 c 132,-1,8
 689 -139 689 -139 664 -137 c 4,9,10
 632 -135 632 -135 609 -122 c 132,-1,11
 586 -109 586 -109 588 -84 c 4,0,1
146 133 m 0,12,13
 146 136 146 136 167.5 147.5 c 128,-1,14
 189 159 189 159 225 181 c 128,-1,15
 261 203 261 203 306 234 c 128,-1,16
 351 265 351 265 401 313.5 c 128,-1,17
 451 362 451 362 497 420 c 128,-1,18
 543 478 543 478 584.5 560.5 c 128,-1,19
 626 643 626 643 650 736 c 0,20,21
 658 768 658 768 689 742 c 0,22,23
 722 713 722 713 731 670 c 0,24,25
 736 642 736 642 724 625 c 0,26,27
 722 623 722 623 661 534.5 c 128,-1,28
 600 446 600 446 560.5 393.5 c 128,-1,29
 521 341 521 341 455 266 c 128,-1,30
 389 191 389 191 335 152 c 0,31,32
 292 120 292 120 366 95 c 0,33,34
 437 71 437 71 524 76 c 0,35,36
 583 79 583 79 618 102 c 128,-1,37
 653 125 653 125 662.5 156 c 128,-1,38
 672 187 672 187 675 218 c 128,-1,39
 678 249 678 249 682.5 270.5 c 128,-1,40
 687 292 687 292 703 293 c 0,41,42
 733 294 733 294 741 275 c 128,-1,43
 749 256 749 256 753 220.5 c 128,-1,44
 757 185 757 185 775 162 c 0,45,46
 789 144 789 144 820 127.5 c 128,-1,47
 851 111 851 111 870 114 c 0,48,49
 961 128 961 128 878 271 c 0,50,51
 868 287 868 287 849 316 c 0,52,53
 818 368 818 368 826 369 c 0,54,55
 907 352 907 352 949.5 285 c 128,-1,56
 992 218 992 218 994 127 c 0,57,58
 995 85 995 85 950.5 64.5 c 128,-1,59
 906 44 906 44 865 63 c 0,60,61
 814 91 814 91 760.5 88.5 c 128,-1,62
 707 86 707 86 674 71.5 c 128,-1,63
 641 57 641 57 594 40.5 c 128,-1,64
 547 24 547 24 509 25 c 0,65,66
 449 26 449 26 297.5 68 c 128,-1,67
 146 110 146 110 146 133 c 0,12,13
EndSplineSet
Validated: 33
EndChar

StartChar: D
Encoding: 68 68 8
Width: 1024
Flags: W
AnchorPoint: "top" 529 665 basechar 0
LayerCount: 2
Fore
SplineSet
1078 -45 m 0,0,1
 1059 -61 1059 -61 918 -57 c 1,2,3
 715 -42 l 1,4,5
 597 11 597 11 623 95 c 0,6,7
 664 228 664 228 673 169 c 0,8,9
 683 106 683 106 737 24 c 0,10,11
 757 -8 757 -8 791 -8 c 0,12,13
 831 -8 831 -8 825 23 c 1,14,-1
 766 146 l 1,15,16
 791 270 791 270 816 194 c 0,17,18
 871 25 871 25 904 1 c 0,19,20
 965 -44 965 -44 1008 17 c 1,21,-1
 920 183 l 1,22,-1
 940 218 l 1,23,24
 964 168 964 168 1095 28 c 0,25,26
 1125 -5 1125 -5 1078 -45 c 0,0,1
164 25 m 1,27,28
 199 -10 199 -10 340 -36 c 0,29,30
 385 -44 385 -44 524 -44 c 1,31,-1
 596 -30 l 1,32,33
 635 -73 635 -73 579 -76 c 0,34,35
 497 -80 497 -80 256 -47 c 0,36,37
 143 -32 143 -32 120 -13 c 1,38,-1
 164 25 l 1,27,28
232 61 m 1,39,-1
 630 392 l 1,40,41
 705 469 705 469 707 594 c 0,42,43
 707 641 707 641 749.5 641 c 128,-1,44
 792 641 792 641 796 624 c 128,-1,45
 800 607 800 607 800 579 c 2,46,-1
 800 547 l 2,47,48
 800 501 800 501 707 403 c 0,49,50
 668 363 668 363 506 239 c 1,51,52
 326 110 326 110 323 106 c 0,53,54
 246 48 246 48 232 61 c 1,39,-1
EndSplineSet
Validated: 33
EndChar

StartChar: E
Encoding: 69 69 9
Width: 1024
Flags: WO
LayerCount: 2
Fore
SplineSet
476 -183.5 m 128,-1,1
 453 -170 453 -170 455 -141 c 128,-1,2
 457 -112 457 -112 482 -90 c 128,-1,3
 507 -68 507 -68 538 -69.5 c 128,-1,4
 569 -71 569 -71 584.5 -96.5 c 128,-1,5
 600 -122 600 -122 598.5 -149 c 128,-1,6
 597 -176 597 -176 576.5 -188.5 c 128,-1,7
 556 -201 556 -201 527.5 -199 c 128,-1,0
 499 -197 499 -197 476 -183.5 c 128,-1,1
89 45 m 0,8,9
 89 93 89 93 118 159.5 c 128,-1,10
 147 226 147 226 169 261 c 128,-1,11
 191 296 191 296 224.5 344.5 c 128,-1,12
 258 393 258 393 261 397.5 c 128,-1,13
 264 402 264 402 265.5 405 c 128,-1,14
 267 408 267 408 279 424 c 128,-1,15
 291 440 291 440 316.5 488.5 c 128,-1,16
 342 537 342 537 360.5 570 c 128,-1,17
 379 603 379 603 404 636 c 0,18,19
 456 703 456 703 544 700 c 0,20,21
 613 698 613 698 664 651 c 0,22,23
 684 633 684 633 705.5 596 c 128,-1,24
 727 559 727 559 737.5 535.5 c 128,-1,25
 748 512 748 512 767 462.5 c 128,-1,26
 786 413 786 413 795 393 c 128,-1,27
 804 373 804 373 820 336.5 c 128,-1,28
 836 300 836 300 846 276.5 c 128,-1,29
 856 253 856 253 870.5 218 c 128,-1,30
 885 183 885 183 892 159 c 128,-1,31
 899 135 899 135 906.5 106 c 128,-1,32
 914 77 914 77 914 57.5 c 128,-1,33
 914 38 914 38 910 20 c 0,34,35
 902 -14 902 -14 859 -20 c 0,36,37
 605 -54 605 -54 520 -30 c 0,38,39
 478 -18 478 -18 458 4 c 0,40,41
 419 47 419 47 427 156.5 c 128,-1,42
 435 266 435 266 458 387 c 0,43,44
 462 409 462 409 492 402.5 c 128,-1,45
 522 396 522 396 520.5 374.5 c 128,-1,46
 519 353 519 353 521 234.5 c 128,-1,47
 523 116 523 116 530.5 90.5 c 128,-1,48
 538 65 538 65 559 50.5 c 128,-1,49
 580 36 580 36 656.5 30.5 c 128,-1,50
 733 25 733 25 759.5 34.5 c 128,-1,51
 786 44 786 44 797 65 c 0,52,53
 815 99 815 99 761 229 c 0,54,55
 717 338 717 338 689 430 c 4,56,57
 676 475 676 475 664.5 494.5 c 128,-1,58
 653 514 653 514 636 536 c 0,59,60
 605 576 605 576 548 569 c 0,61,62
 511 565 511 565 488.5 558 c 128,-1,63
 466 551 466 551 446.5 532 c 128,-1,64
 427 513 427 513 416.5 497.5 c 128,-1,65
 406 482 406 482 380 441 c 128,-1,66
 354 400 354 400 339 377 c 128,-1,67
 324 354 324 354 251.5 237 c 128,-1,68
 179 120 179 120 134 61.5 c 128,-1,69
 89 3 89 3 89 45 c 0,8,9
EndSplineSet
Validated: 33
EndChar

StartChar: G
Encoding: 71 71 10
Width: 1024
Flags: W
AnchorPoint: "top" 488 644 basechar 0
LayerCount: 2
Fore
SplineSet
915 -176 m 0,0,1
 917 -142 917 -142 942.5 -120 c 128,-1,2
 968 -98 968 -98 1001 -100 c 0,3,4
 1030 -101 1030 -101 1045.5 -127 c 128,-1,5
 1061 -153 1061 -153 1059 -184 c 0,6,7
 1058 -207 1058 -207 1037.5 -219 c 128,-1,8
 1017 -231 1017 -231 991 -229 c 0,9,10
 959 -227 959 -227 936 -214 c 128,-1,11
 913 -201 913 -201 915 -176 c 0,0,1
680 -176 m 0,12,13
 682 -142 682 -142 707 -120 c 128,-1,14
 732 -98 732 -98 766 -100 c 0,15,16
 795 -101 795 -101 810 -127 c 128,-1,17
 825 -153 825 -153 823 -184 c 0,18,19
 822 -207 822 -207 801.5 -219 c 128,-1,20
 781 -231 781 -231 756 -229 c 0,21,22
 724 -227 724 -227 701 -214 c 128,-1,23
 678 -201 678 -201 680 -176 c 0,12,13
1078 -45 m 0,24,25
 1059 -61 1059 -61 918 -57 c 1,26,-1
 715 -42 l 1,27,28
 597 11 597 11 623 95 c 0,29,30
 664 228 664 228 673 169 c 0,31,32
 683 106 683 106 737 24 c 0,33,34
 757 -8 757 -8 791 -8 c 0,35,36
 831 -8 831 -8 825 23 c 1,37,-1
 766 146 l 1,38,39
 791 270 791 270 816 194 c 0,40,41
 871 25 871 25 904 1 c 0,42,43
 965 -44 965 -44 1008 17 c 1,44,-1
 920 183 l 1,45,-1
 940 218 l 1,46,47
 964 168 964 168 1095 28 c 0,48,49
 1125 -5 1125 -5 1078 -45 c 0,24,25
164 25 m 1,50,51
 199 -10 199 -10 340 -36 c 0,52,53
 385 -44 385 -44 524 -44 c 1,54,-1
 596 -30 l 1,55,56
 635 -73 635 -73 579 -76 c 0,57,58
 497 -80 497 -80 256 -47 c 0,59,60
 143 -32 143 -32 120 -13 c 1,61,-1
 164 25 l 1,50,51
232 61 m 1,62,-1
 630 392 l 1,63,64
 705 469 705 469 707 594 c 0,65,66
 707 641 707 641 749 641 c 0,67,68
 792 641 792 641 796 624 c 128,-1,69
 800 607 800 607 800 558 c 0,70,71
 800 551 800 551 800 547 c 0,72,73
 800 501 800 501 707 403 c 0,74,75
 668 363 668 363 506 239 c 1,76,77
 326 110 326 110 323 106 c 0,78,79
 246 48 246 48 232 61 c 1,62,-1
EndSplineSet
Validated: 33
EndChar

StartChar: J
Encoding: 74 74 11
Width: 1024
Flags: W
AnchorPoint: "top" 495 660 basechar 0
LayerCount: 2
Fore
SplineSet
752 -176 m 0,0,1
 754 -142 754 -142 779 -120 c 128,-1,2
 804 -98 804 -98 838 -100 c 0,3,4
 867 -101 867 -101 882 -127 c 128,-1,5
 897 -153 897 -153 895 -184 c 0,6,7
 894 -207 894 -207 873.5 -219 c 128,-1,8
 853 -231 853 -231 827 -229 c 0,9,10
 795 -227 795 -227 772.5 -214 c 128,-1,11
 750 -201 750 -201 752 -176 c 0,0,1
1078 -45 m 0,12,13
 1059 -61 1059 -61 918 -57 c 1,14,-1
 715 -42 l 1,15,16
 597 11 597 11 623 95 c 0,17,18
 664 228 664 228 673 169 c 0,19,20
 683 106 683 106 737 24 c 0,21,22
 757 -8 757 -8 791 -8 c 0,23,24
 831 -8 831 -8 825 23 c 1,25,-1
 766 146 l 1,26,27
 791 270 791 270 816 194 c 0,28,29
 871 25 871 25 904 1 c 0,30,31
 965 -44 965 -44 1008 17 c 1,32,-1
 920 183 l 1,33,-1
 940 218 l 1,34,35
 964 168 964 168 1095 28 c 0,36,37
 1125 -5 1125 -5 1078 -45 c 0,12,13
164 25 m 1,38,39
 199 -10 199 -10 340 -36 c 0,40,41
 385 -44 385 -44 524 -44 c 1,42,-1
 596 -30 l 1,43,44
 635 -73 635 -73 579 -76 c 0,45,46
 497 -80 497 -80 256 -47 c 0,47,48
 143 -32 143 -32 120 -13 c 1,49,-1
 164 25 l 1,38,39
232 61 m 1,50,-1
 630 392 l 1,51,52
 705 469 705 469 707 594 c 0,53,54
 707 641 707 641 749 641 c 0,55,56
 792 641 792 641 796 624 c 128,-1,57
 800 607 800 607 800 558 c 0,58,59
 800 551 800 551 800 547 c 0,60,61
 800 501 800 501 707 403 c 0,62,63
 668 363 668 363 506 239 c 1,64,65
 326 110 326 110 323 106 c 0,66,67
 246 48 246 48 232 61 c 1,50,-1
EndSplineSet
Validated: 33
EndChar

StartChar: M
Encoding: 77 77 12
Width: 1024
Flags: W
AnchorPoint: "top" 458 779 basechar 0
LayerCount: 2
Fore
SplineSet
286 121 m 0,0,1
 288 155 288 155 313 177 c 128,-1,2
 338 199 338 199 372 197 c 0,3,4
 401 196 401 196 416 170 c 128,-1,5
 431 144 431 144 429 113 c 0,6,7
 428 90 428 90 407.5 78 c 128,-1,8
 387 66 387 66 361 68 c 0,9,10
 329 70 329 70 306.5 83 c 128,-1,11
 284 96 284 96 286 121 c 0,0,1
465 121 m 0,12,13
 467 155 467 155 492 177 c 128,-1,14
 517 199 517 199 551 197 c 0,15,16
 580 196 580 196 595 170 c 128,-1,17
 610 144 610 144 608 113 c 0,18,19
 607 90 607 90 586.5 78 c 128,-1,20
 566 66 566 66 541 68 c 0,21,22
 509 70 509 70 486 83 c 128,-1,23
 463 96 463 96 465 121 c 0,12,13
-191 96 m 1024,24,-1
1082 -227 m 1024,25,-1
118 25 m 0,26,27
 123 62 123 62 157 34 c 0,28,29
 167 26 167 26 191 1 c 0,30,31
 257 -64 257 -64 291 -75 c 0,32,33
 309 -80 309 -80 325 -76 c 0,34,35
 452 -43 452 -43 537 14 c 128,-1,36
 622 71 622 71 732 182 c 0,37,38
 754 207 754 207 740 226.5 c 128,-1,39
 726 246 726 246 689 252 c 0,40,41
 634 261 634 261 554 246.5 c 128,-1,42
 474 232 474 232 445 231 c 0,43,44
 435 231 435 231 419 229.5 c 128,-1,45
 403 228 403 228 391 227 c 128,-1,46
 379 226 379 226 361.5 225.5 c 128,-1,47
 344 225 344 225 333 225 c 128,-1,48
 322 225 322 225 307.5 226.5 c 128,-1,49
 293 228 293 228 286 231 c 128,-1,50
 279 234 279 234 271 239.5 c 128,-1,51
 263 245 263 245 264 253 c 128,-1,52
 265 261 265 261 267 272 c 0,53,54
 284 316 284 316 320 349 c 128,-1,55
 356 382 356 382 392 399.5 c 128,-1,56
 428 417 428 417 473 445.5 c 128,-1,57
 518 474 518 474 548 508 c 0,58,59
 583 547 583 547 603.5 597 c 128,-1,60
 624 647 624 647 646.5 692 c 128,-1,61
 669 737 669 737 710 772 c 0,62,63
 734 792 734 792 745 749 c 0,64,65
 759 700 759 700 745 657 c 0,66,67
 743 654 743 654 742 651 c 0,68,69
 724 612 724 612 698 577 c 128,-1,70
 672 542 672 542 657.5 526 c 128,-1,71
 643 510 643 510 597.5 468 c 128,-1,72
 552 426 552 426 540 414 c 0,73,74
 516 391 516 391 473 369.5 c 128,-1,75
 430 348 430 348 401.5 330.5 c 128,-1,76
 373 313 373 313 370 291 c 1,77,78
 376 275 376 275 430.5 277.5 c 128,-1,79
 485 280 485 280 556.5 296 c 128,-1,80
 628 312 628 312 646 328 c 0,81,82
 655 336 655 336 659 393 c 0,83,84
 661 423 661 423 669 424 c 0,85,86
 671 424 671 424 673 422 c 0,87,88
 735 378 735 378 766.5 340.5 c 128,-1,89
 798 303 798 303 808 244 c 0,90,91
 831 113 831 113 736 39 c 0,92,93
 614 -56 614 -56 526 -98 c 128,-1,94
 438 -140 438 -140 314 -143 c 0,95,96
 234 -145 234 -145 170.5 -95.5 c 128,-1,97
 107 -46 107 -46 118 25 c 0,26,27
EndSplineSet
Validated: 33
EndChar

StartChar: bracketleft
Encoding: 91 91 13
Width: 217
Flags: W
LayerCount: 2
Fore
SplineSet
111 443 m 0,0,1
 99 442 99 442 93 467 c 0,2,3
 90 477 90 477 103 482 c 0,4,5
 125 489 125 489 128 466 c 0,6,7
 131 445 131 445 111 443 c 0,0,1
122 629 m 0,8,9
 57 625 57 625 60 571 c 0,10,11
 62 531 62 531 123 534 c 0,12,13
 167 535 167 535 165 573 c 0,14,15
 162 632 162 632 122 629 c 0,8,9
41 571 m 0,16,17
 43 605 43 605 68 627 c 128,-1,18
 93 649 93 649 127 647 c 0,19,20
 156 646 156 646 171 620.5 c 128,-1,21
 186 595 186 595 184 563 c 0,22,23
 183 540 183 540 162.5 528 c 128,-1,24
 142 516 142 516 117 518 c 0,25,26
 85 520 85 520 62 533 c 128,-1,27
 39 546 39 546 41 571 c 0,16,17
EndSplineSet
Validated: 33
EndChar

StartChar: bracketright
Encoding: 93 93 14
Width: 292
Flags: W
LayerCount: 2
Fore
SplineSet
63 556 m 0,0,1
 51 555 51 555 46 580 c 0,2,3
 43 590 43 590 56 595 c 0,4,5
 78 602 78 602 81 579 c 0,6,7
 83 558 83 558 63 556 c 0,0,1
198 629 m 0,8,9
 133 625 133 625 136 571 c 0,10,11
 138 531 138 531 199 534 c 0,12,13
 243 535 243 535 241 573 c 0,14,15
 238 632 238 632 198 629 c 0,8,9
117 571 m 0,16,17
 119 605 119 605 144 627 c 128,-1,18
 169 649 169 649 203 647 c 0,19,20
 232 646 232 646 247 620.5 c 128,-1,21
 262 595 262 595 260 563 c 0,22,23
 259 540 259 540 238.5 528 c 128,-1,24
 218 516 218 516 193 518 c 0,25,26
 161 520 161 520 138 533 c 128,-1,27
 115 546 115 546 117 571 c 0,16,17
EndSplineSet
Validated: 33
EndChar

StartChar: asciicircum
Encoding: 94 94 15
Width: 745
Flags: W
LayerCount: 2
Fore
SplineSet
443 176 m 1,0,1
 434 172 434 172 421.5 164.5 c 128,-1,2
 409 157 409 157 388.5 136.5 c 128,-1,3
 368 116 368 116 372 97 c 0,4,5
 374 89 374 89 383 86 c 128,-1,6
 392 83 392 83 405 84.5 c 128,-1,7
 418 86 418 86 430 89 c 128,-1,8
 442 92 442 92 451 95 c 2,9,-1
 459 98 l 1,10,-1
 443 176 l 1,0,1
77 111 m 0,11,12
 123 176 123 176 222.5 259.5 c 128,-1,13
 322 343 322 343 370 401 c 0,14,15
 428 472 428 472 454.5 507 c 128,-1,16
 481 542 481 542 514.5 597 c 128,-1,17
 548 652 548 652 570 711 c 0,18,19
 584 748 584 748 611 729 c 0,20,21
 636 713 636 713 638 678 c 1,22,-1
 636 657 l 1,23,24
 628 631 628 631 546.5 523 c 128,-1,25
 465 415 465 415 442 367 c 0,26,27
 439 361 439 361 455 356 c 128,-1,28
 471 351 471 351 496.5 346.5 c 128,-1,29
 522 342 522 342 553 329.5 c 128,-1,30
 584 317 584 317 611 299.5 c 128,-1,31
 638 282 638 282 656.5 246.5 c 128,-1,32
 675 211 675 211 675 164 c 0,33,34
 675 128 675 128 657 110.5 c 128,-1,35
 639 93 639 93 615.5 91 c 128,-1,36
 592 89 592 89 563 80.5 c 128,-1,37
 534 72 534 72 519 53 c 0,38,39
 506 35 506 35 510 12 c 128,-1,40
 514 -11 514 -11 512.5 -31.5 c 128,-1,41
 511 -52 511 -52 492.5 -53 c 128,-1,42
 474 -54 474 -54 467 -41.5 c 128,-1,43
 460 -29 460 -29 461.5 -12 c 128,-1,44
 463 5 463 5 461 23 c 128,-1,45
 459 41 459 41 449 47 c 0,46,47
 435 55 435 55 409 56 c 128,-1,48
 383 57 383 57 361.5 55 c 128,-1,49
 340 53 340 53 321.5 54.5 c 128,-1,50
 303 56 303 56 300 65 c 0,51,52
 293 84 293 84 359.5 161 c 128,-1,53
 426 238 426 238 456 243 c 0,54,55
 472 246 472 246 482 230.5 c 128,-1,56
 492 215 492 215 495.5 194.5 c 128,-1,57
 499 174 499 174 508.5 156.5 c 128,-1,58
 518 139 518 139 534 139 c 0,59,60
 554 139 554 139 564.5 139.5 c 128,-1,61
 575 140 575 140 590 143.5 c 128,-1,62
 605 147 605 147 611.5 155.5 c 128,-1,63
 618 164 618 164 617 177 c 0,64,65
 615 214 615 214 568 249.5 c 128,-1,66
 521 285 521 285 462 301 c 128,-1,67
 403 317 403 317 367 307 c 0,68,69
 364 306 364 306 301 257 c 0,70,71
 69 75 69 75 68 94 c 0,72,73
 68 99 68 99 77 111 c 0,11,12
444 -137 m 0,74,75
 445 -113 445 -113 461.5 -97.5 c 128,-1,76
 478 -82 478 -82 510 -84 c 0,77,78
 533 -86 533 -86 546 -104.5 c 128,-1,79
 559 -123 559 -123 557 -148 c 0,80,81
 553 -196 553 -196 500 -194 c 0,82,83
 475 -192 475 -192 459 -177.5 c 128,-1,84
 443 -163 443 -163 444 -137 c 0,74,75
EndSplineSet
Validated: 33
EndChar

StartChar: underscore
Encoding: 95 95 16
Width: 595
Flags: W
LayerCount: 2
Fore
SplineSet
499 209 m 0,0,1
 434 205 434 205 437 152 c 0,2,3
 439 112 439 112 500 114 c 0,4,5
 544 115 544 115 542 154 c 0,6,7
 539 212 539 212 499 209 c 0,0,1
418 152 m 0,8,9
 420 186 420 186 445 207.5 c 128,-1,10
 470 229 470 229 504 227 c 0,11,12
 533 226 533 226 548 200.5 c 128,-1,13
 563 175 563 175 561 143 c 0,14,15
 560 120 560 120 539.5 108 c 128,-1,16
 519 96 519 96 494 98 c 0,17,18
 462 100 462 100 439 113.5 c 128,-1,19
 416 127 416 127 418 152 c 0,8,9
151 209 m 0,20,21
 86 205 86 205 89 152 c 0,22,23
 91 112 91 112 152 114 c 0,24,25
 196 115 196 115 194 154 c 0,26,27
 191 212 191 212 151 209 c 0,20,21
70 152 m 0,28,29
 72 186 72 186 97 207.5 c 128,-1,30
 122 229 122 229 156 227 c 0,31,32
 185 226 185 226 200 200.5 c 128,-1,33
 215 175 215 175 213 143 c 0,34,35
 212 120 212 120 191.5 108 c 128,-1,36
 171 96 171 96 145 98 c 0,37,38
 113 100 113 100 90.5 113.5 c 128,-1,39
 68 127 68 127 70 152 c 0,28,29
325 209 m 0,40,41
 260 205 260 205 263 152 c 0,42,43
 265 112 265 112 326 114 c 0,44,45
 370 115 370 115 368 154 c 0,46,47
 365 212 365 212 325 209 c 0,40,41
244 152 m 0,48,49
 246 186 246 186 271 207.5 c 128,-1,50
 296 229 296 229 330 227 c 0,51,52
 359 226 359 226 374 200.5 c 128,-1,53
 389 175 389 175 387 143 c 0,54,55
 386 120 386 120 365.5 108 c 128,-1,56
 345 96 345 96 319 98 c 0,57,58
 287 100 287 100 264.5 113.5 c 128,-1,59
 242 127 242 127 244 152 c 0,48,49
EndSplineSet
Validated: 33
EndChar

StartChar: a
Encoding: 97 97 17
Width: 768
Flags: W
LayerCount: 2
Fore
SplineSet
587 47 m 1024,0,-1
362 559 m 1,1,-1
 165 59 l 1,2,-1
 587 46 l 1,3,-1
 362 559 l 1,1,-1
95 -1 m 0,4,5
 78 -1 78 -1 133 170 c 128,-1,6
 188 341 188 341 259 513.5 c 128,-1,7
 330 686 330 686 349 688 c 0,8,9
 377 691 377 691 500 465 c 0,10,11
 632 220 632 220 679 83 c 0,12,13
 695 36 695 36 691 25 c 0,14,15
 684 9 684 9 628 -0.5 c 128,-1,16
 572 -10 572 -10 490 -10 c 128,-1,17
 408 -10 408 -10 330.5 -8.5 c 128,-1,18
 253 -7 253 -7 180 -4 c 128,-1,19
 107 -1 107 -1 95 -1 c 0,4,5
EndSplineSet
Validated: 33
EndChar

StartChar: b
Encoding: 98 98 18
Width: 758
Flags: W
AnchorPoint: "top" 413 756 basechar 0
LayerCount: 2
Fore
SplineSet
453 -137 m 0,0,1
 454 -113 454 -113 470 -97.5 c 128,-1,2
 486 -82 486 -82 518 -84 c 0,3,4
 541 -86 541 -86 554 -104.5 c 128,-1,5
 567 -123 567 -123 565 -150 c 0,6,7
 561 -198 561 -198 508 -195 c 0,8,9
 483 -193 483 -193 467.5 -178 c 128,-1,10
 452 -163 452 -163 453 -137 c 0,0,1
315 -210 m 0,11,12
 302 -224 302 -224 305 -218 c 0,13,14
 316 -193 316 -193 390 -111 c 0,15,16
 449 -42 449 -42 480 -23 c 0,17,18
 529 8 529 8 611 1 c 0,19,20
 646 -2 646 -2 647 -10 c 0,21,22
 648 -15 648 -15 624 -19 c 0,23,24
 469 -44 469 -44 315 -210 c 0,11,12
452 176 m 1,25,26
 443 172 443 172 430 165 c 128,-1,27
 417 158 417 158 396.5 137.5 c 128,-1,28
 376 117 376 117 380 98 c 0,29,30
 382 90 382 90 391 87 c 128,-1,31
 400 84 400 84 413 85 c 128,-1,32
 426 86 426 86 438.5 89 c 128,-1,33
 451 92 451 92 459 96 c 2,34,-1
 467 98 l 1,35,-1
 452 176 l 1,25,26
85 111 m 0,36,37
 131 176 131 176 231 260 c 128,-1,38
 331 344 331 344 379 401 c 0,39,40
 437 472 437 472 463.5 507.5 c 128,-1,41
 490 543 490 543 523.5 598 c 128,-1,42
 557 653 557 653 580 711 c 0,43,44
 594 748 594 748 621 729 c 0,45,46
 646 713 646 713 647 678 c 1,47,-1
 645 657 l 1,48,49
 637 631 637 631 555 523 c 128,-1,50
 473 415 473 415 451 367 c 0,51,52
 448 361 448 361 463.5 356 c 128,-1,53
 479 351 479 351 504.5 346.5 c 128,-1,54
 530 342 530 342 561.5 329.5 c 128,-1,55
 593 317 593 317 620 299.5 c 128,-1,56
 647 282 647 282 665.5 246.5 c 128,-1,57
 684 211 684 211 684 164 c 0,58,59
 684 128 684 128 666 110.5 c 128,-1,60
 648 93 648 93 624.5 91 c 128,-1,61
 601 89 601 89 572 80.5 c 128,-1,62
 543 72 543 72 528 53 c 0,63,64
 515 35 515 35 518.5 12 c 128,-1,65
 522 -11 522 -11 520.5 -31.5 c 128,-1,66
 519 -52 519 -52 500.5 -53 c 128,-1,67
 482 -54 482 -54 475 -42 c 128,-1,68
 468 -30 468 -30 469.5 -13 c 128,-1,69
 471 4 471 4 469 22 c 128,-1,70
 467 40 467 40 457 46 c 0,71,72
 443 54 443 54 417 55 c 128,-1,73
 391 56 391 56 369.5 54 c 128,-1,74
 348 52 348 52 329.5 53.5 c 128,-1,75
 311 55 311 55 308 63 c 0,76,77
 301 82 301 82 367.5 160 c 128,-1,78
 434 238 434 238 464 244 c 0,79,80
 480 247 480 247 490.5 231 c 128,-1,81
 501 215 501 215 504.5 194.5 c 128,-1,82
 508 174 508 174 517.5 156.5 c 128,-1,83
 527 139 527 139 543 139 c 0,84,85
 563 139 563 139 574 140 c 128,-1,86
 585 141 585 141 599.5 144 c 128,-1,87
 614 147 614 147 621 155.5 c 128,-1,88
 628 164 628 164 627 178 c 0,89,90
 625 215 625 215 577.5 250 c 128,-1,91
 530 285 530 285 471.5 301 c 128,-1,92
 413 317 413 317 376 307 c 0,93,94
 373 307 373 307 309 258 c 0,95,96
 77 76 77 76 76 94 c 0,97,98
 76 99 76 99 85 111 c 0,36,37
EndSplineSet
Validated: 37
EndChar

StartChar: d
Encoding: 100 100 19
Width: 829
Flags: W
AnchorPoint: "top" 429 775 basechar 0
LayerCount: 2
Fore
SplineSet
299 -189 m 0,0,1
 286 -203 286 -203 289 -198 c 0,2,3
 300 -173 300 -173 374 -90 c 0,4,5
 433 -21 433 -21 463 -2 c 0,6,7
 512 29 512 29 594 22 c 0,8,9
 629 19 629 19 630 10 c 0,10,11
 631 5 631 5 606 1 c 0,12,13
 453 -23 453 -23 299 -189 c 0,0,1
450 313 m 0,14,15
 423 316 423 316 391.5 268.5 c 128,-1,16
 360 221 360 221 366 204 c 0,17,18
 371 186 371 186 417.5 185.5 c 128,-1,19
 464 185 464 185 469 198 c 0,20,21
 476 217 476 217 472.5 243 c 128,-1,22
 469 269 469 269 461.5 290.5 c 128,-1,23
 454 312 454 312 450 313 c 0,14,15
108 125 m 0,24,25
 66 110 66 110 76 156 c 0,26,27
 93 235 93 235 231 430 c 2,28,-1
 278 494 l 2,29,30
 351 589 351 589 437.5 663 c 128,-1,31
 524 737 524 737 572 735 c 0,32,33
 603 734 603 734 638.5 658 c 128,-1,34
 674 582 674 582 696.5 485.5 c 128,-1,35
 719 389 719 389 728.5 297.5 c 128,-1,36
 738 206 738 206 718 174 c 0,37,38
 707 155 707 155 627 155.5 c 128,-1,39
 547 156 547 156 532 148 c 0,40,41
 519 139 519 139 518.5 114 c 128,-1,42
 518 89 518 89 523 65 c 128,-1,43
 528 41 528 41 523 20.5 c 128,-1,44
 518 0 518 0 497 -1 c 0,45,46
 471 -3 471 -3 470 25 c 128,-1,47
 469 53 469 53 470 91 c 128,-1,48
 471 129 471 129 451 142 c 0,49,50
 431 154 431 154 397.5 150.5 c 128,-1,51
 364 147 364 147 332 150 c 128,-1,52
 300 153 300 153 300 170 c 0,53,54
 299 198 299 198 333 255.5 c 128,-1,55
 367 313 367 313 404.5 358.5 c 128,-1,56
 442 404 442 404 454 403 c 0,57,58
 481 400 481 400 492.5 353.5 c 128,-1,59
 504 307 504 307 512 261 c 128,-1,60
 520 215 520 215 536 213 c 0,61,62
 565 212 565 212 599.5 212.5 c 128,-1,63
 634 213 634 213 660 226 c 128,-1,64
 686 239 686 239 681 262 c 0,65,66
 678 276 678 276 671 308.5 c 128,-1,67
 664 341 664 341 658 364 c 128,-1,68
 652 387 652 387 644 421 c 128,-1,69
 636 455 636 455 629 479.5 c 128,-1,70
 622 504 622 504 612 532.5 c 128,-1,71
 602 561 602 561 593 580 c 128,-1,72
 584 599 584 599 573 615.5 c 128,-1,73
 562 632 562 632 550 638.5 c 128,-1,74
 538 645 538 645 525 642 c 0,75,76
 475 631 475 631 405 549.5 c 128,-1,77
 335 468 335 468 279 377 c 128,-1,78
 223 286 223 286 172.5 208 c 128,-1,79
 122 130 122 130 108 125 c 0,24,25
EndSplineSet
Validated: 37
EndChar

StartChar: e
Encoding: 101 101 20
Width: 1024
Flags: W
LayerCount: 2
Fore
SplineSet
89 45 m 0,0,1
 89 93 89 93 118 159.5 c 128,-1,2
 147 226 147 226 169 261 c 128,-1,3
 191 296 191 296 224.5 344.5 c 128,-1,4
 258 393 258 393 261 397.5 c 128,-1,5
 264 402 264 402 265.5 405 c 128,-1,6
 267 408 267 408 279 424 c 128,-1,7
 291 440 291 440 316.5 488.5 c 128,-1,8
 342 537 342 537 360.5 570 c 128,-1,9
 379 603 379 603 404 636 c 0,10,11
 456 703 456 703 544 700 c 0,12,13
 613 698 613 698 664 651 c 0,14,15
 684 633 684 633 705.5 596 c 128,-1,16
 727 559 727 559 737.5 535.5 c 128,-1,17
 748 512 748 512 767 462.5 c 128,-1,18
 786 413 786 413 795 393 c 128,-1,19
 804 373 804 373 820 336.5 c 128,-1,20
 836 300 836 300 846 276.5 c 128,-1,21
 856 253 856 253 870.5 218 c 128,-1,22
 885 183 885 183 892 159 c 128,-1,23
 899 135 899 135 906.5 106 c 128,-1,24
 914 77 914 77 914 57.5 c 128,-1,25
 914 38 914 38 910 20 c 0,26,27
 902 -14 902 -14 859 -20 c 0,28,29
 605 -54 605 -54 520 -30 c 0,30,31
 478 -18 478 -18 458 4 c 0,32,33
 419 47 419 47 427 156.5 c 128,-1,34
 435 266 435 266 458 387 c 0,35,36
 462 409 462 409 492 402.5 c 128,-1,37
 522 396 522 396 520.5 374.5 c 128,-1,38
 519 353 519 353 521 234.5 c 128,-1,39
 523 116 523 116 530.5 90.5 c 128,-1,40
 538 65 538 65 559 50.5 c 128,-1,41
 580 36 580 36 656.5 30.5 c 128,-1,42
 733 25 733 25 759.5 34.5 c 128,-1,43
 786 44 786 44 797 65 c 0,44,45
 815 99 815 99 761 229 c 0,46,47
 717 338 717 338 689 430 c 0,48,49
 676 475 676 475 664.5 494.5 c 128,-1,50
 653 514 653 514 636 536 c 0,51,52
 605 576 605 576 548 569 c 0,53,54
 511 565 511 565 488.5 558 c 128,-1,55
 466 551 466 551 446.5 532 c 128,-1,56
 427 513 427 513 416.5 497.5 c 128,-1,57
 406 482 406 482 380 441 c 128,-1,58
 354 400 354 400 339 377 c 128,-1,59
 324 354 324 354 251.5 237 c 128,-1,60
 179 120 179 120 134 61.5 c 128,-1,61
 89 3 89 3 89 45 c 0,0,1
EndSplineSet
Validated: 33
EndChar

StartChar: f
Encoding: 102 102 21
Width: 784
Flags: W
HStem: 152 34<354 438> 155 58<521 661>
VStem: 458 49<0 143>
AnchorPoint: "top" 404 800 basechar 0
LayerCount: 2
Fore
SplineSet
437 313 m 0,0,1
 410 316 410 316 379 268.5 c 128,-1,2
 348 221 348 221 353 204 c 0,3,4
 358 186 358 186 405 185.5 c 128,-1,5
 452 185 452 185 457 198 c 0,6,7
 464 217 464 217 460.5 243 c 128,-1,8
 457 269 457 269 449 290.5 c 128,-1,9
 441 312 441 312 437 313 c 0,0,1
95 125 m 0,10,11
 53 110 53 110 63 156 c 0,12,13
 80 235 80 235 219 430 c 2,14,-1
 265 494 l 2,15,16
 338 589 338 589 425 663 c 128,-1,17
 512 737 512 737 560 735 c 0,18,19
 591 734 591 734 626.5 658 c 128,-1,20
 662 582 662 582 684.5 485.5 c 128,-1,21
 707 389 707 389 716.5 297.5 c 128,-1,22
 726 206 726 206 706 174 c 0,23,24
 695 155 695 155 615 155.5 c 128,-1,25
 535 156 535 156 520 150 c 0,26,27
 507 141 507 141 506.5 115.5 c 128,-1,28
 506 90 506 90 511 65.5 c 128,-1,29
 516 41 516 41 511 20.5 c 128,-1,30
 506 0 506 0 484 0 c 0,31,32
 458 -2 458 -2 457.5 25.5 c 128,-1,33
 457 53 457 53 458 91 c 128,-1,34
 459 129 459 129 438 143 c 0,35,36
 418 155 418 155 384.5 151 c 128,-1,37
 351 147 351 147 319.5 150 c 128,-1,38
 288 153 288 153 288 170 c 0,39,40
 287 198 287 198 320.5 255.5 c 128,-1,41
 354 313 354 313 392 358.5 c 128,-1,42
 430 404 430 404 441 403 c 0,43,44
 468 400 468 400 480 353.5 c 128,-1,45
 492 307 492 307 500 261 c 128,-1,46
 508 215 508 215 523 213 c 0,47,48
 552 212 552 212 587 212.5 c 128,-1,49
 622 213 622 213 648 226 c 128,-1,50
 674 239 674 239 669 262 c 0,51,52
 666 276 666 276 658.5 308.5 c 128,-1,53
 651 341 651 341 645.5 364 c 128,-1,54
 640 387 640 387 632 421 c 128,-1,55
 624 455 624 455 616.5 479.5 c 128,-1,56
 609 504 609 504 599.5 532.5 c 128,-1,57
 590 561 590 561 580.5 580 c 128,-1,58
 571 599 571 599 560.5 615.5 c 128,-1,59
 550 632 550 632 537.5 638.5 c 128,-1,60
 525 645 525 645 513 642 c 0,61,62
 463 631 463 631 393 549.5 c 128,-1,63
 323 468 323 468 267 377 c 128,-1,64
 211 286 211 286 160 208 c 128,-1,65
 109 130 109 130 95 125 c 0,10,11
EndSplineSet
Validated: 33
EndChar

StartChar: g
Encoding: 103 103 22
Width: 715
Flags: W
AnchorPoint: "top" 361 769 basechar 0
LayerCount: 2
Fore
SplineSet
596 -148 m 0,0,1
 590 -107 590 -107 612 -100 c 0,2,3
 622 -97 622 -97 628.5 -108 c 128,-1,4
 635 -119 635 -119 637 -134 c 0,5,6
 640 -153 640 -153 621 -161 c 0,7,8
 613 -163 613 -163 605 -159 c 128,-1,9
 597 -155 597 -155 596 -148 c 0,0,1
421 -86 m 0,10,11
 407 -84 407 -84 396.5 -97 c 128,-1,12
 386 -110 386 -110 386 -128 c 0,13,14
 385 -145 385 -145 394 -159 c 128,-1,15
 403 -173 403 -173 419 -175 c 0,16,17
 437 -177 437 -177 453 -167.5 c 128,-1,18
 469 -158 469 -158 470 -140 c 0,19,20
 471 -120 471 -120 457 -104.5 c 128,-1,21
 443 -89 443 -89 421 -86 c 0,10,11
421 -33 m 0,22,23
 463 -35 463 -35 491.5 -64 c 128,-1,24
 520 -93 520 -93 521 -134 c 0,25,26
 522 -170 522 -170 492 -192 c 128,-1,27
 462 -214 462 -214 423 -212 c 0,28,29
 387 -210 387 -210 362.5 -186 c 128,-1,30
 338 -162 338 -162 337 -126 c 0,31,32
 336 -89 336 -89 361 -60.5 c 128,-1,33
 386 -32 386 -32 421 -33 c 0,22,23
89 253 m 0,34,35
 101 262 101 262 142.5 284 c 128,-1,36
 184 306 184 306 232.5 341.5 c 128,-1,37
 281 377 281 377 333 433 c 0,38,39
 398 502 398 502 427.5 558.5 c 128,-1,40
 457 615 457 615 476 696 c 0,41,42
 482 722 482 722 501 694 c 0,43,44
 526 657 526 657 524 614 c 0,45,46
 523 601 523 601 519 592 c 0,47,48
 484 523 484 523 433 462.5 c 128,-1,49
 382 402 382 402 320 342.5 c 128,-1,50
 258 283 258 283 230 250 c 0,51,52
 219 237 219 237 218 226 c 128,-1,53
 217 215 217 215 224.5 207 c 128,-1,54
 232 199 232 199 241 192.5 c 128,-1,55
 250 186 250 186 264.5 178.5 c 128,-1,56
 279 171 279 171 286 166 c 0,57,58
 306 152 306 152 334 143.5 c 128,-1,59
 362 135 362 135 382.5 133.5 c 128,-1,60
 403 132 403 132 437 131 c 0,61,62
 476 130 476 130 523.5 150 c 128,-1,63
 571 170 571 170 557 197 c 0,64,65
 549 212 549 212 488 283 c 0,66,67
 434 348 434 348 456 351 c 0,68,69
 459 352 459 352 464 352 c 0,70,71
 545 344 545 344 594 283 c 128,-1,72
 643 222 643 222 648 134 c 0,73,74
 649 110 649 110 628 94 c 128,-1,75
 607 78 607 78 568 69.5 c 128,-1,76
 529 61 529 61 495 57 c 128,-1,77
 461 53 461 53 417 51 c 0,78,79
 359 48 359 48 305 68.5 c 128,-1,80
 251 89 251 89 183 130 c 0,81,82
 176 134 176 134 162 143 c 0,83,84
 132 159 132 159 117.5 169.5 c 128,-1,85
 103 180 103 180 86 196 c 128,-1,86
 69 212 69 212 70 226 c 128,-1,87
 71 240 71 240 89 253 c 0,34,35
EndSplineSet
Validated: 33
EndChar

StartChar: h
Encoding: 104 104 23
Width: 790
Flags: W
AnchorPoint: "top" 359 757 basechar 0
LayerCount: 2
Fore
SplineSet
414 -146 m 4,0,1
 416 -112 416 -112 441 -90 c 132,-1,2
 466 -68 466 -68 500 -70 c 4,3,4
 529 -71 529 -71 544 -96.5 c 132,-1,5
 559 -122 559 -122 557 -155 c 4,6,7
 556 -178 556 -178 535.5 -190 c 132,-1,8
 515 -202 515 -202 489 -200 c 4,9,10
 457 -198 457 -198 434.5 -184.5 c 132,-1,11
 412 -171 412 -171 414 -146 c 4,0,1
188 -146 m 0,12,13
 190 -112 190 -112 215.5 -90 c 128,-1,14
 241 -68 241 -68 274 -70 c 0,15,16
 303 -71 303 -71 318.5 -96.5 c 128,-1,17
 334 -122 334 -122 332 -155 c 0,18,19
 331 -178 331 -178 310.5 -190 c 128,-1,20
 290 -202 290 -202 264 -200 c 0,21,22
 232 -198 232 -198 209 -184.5 c 128,-1,23
 186 -171 186 -171 188 -146 c 0,12,13
597 47 m 1024,24,-1
373 559 m 1,25,-1
 175 59 l 1,26,-1
 597 46 l 1,27,-1
 373 559 l 1,25,-1
105 -1 m 0,28,29
 88 -1 88 -1 143.5 170 c 128,-1,30
 199 341 199 341 269.5 513.5 c 128,-1,31
 340 686 340 686 359 688 c 0,32,33
 387 691 387 691 510 465 c 0,34,35
 642 220 642 220 689 83 c 0,36,37
 705 36 705 36 701 25 c 0,38,39
 694 9 694 9 638.5 -0.5 c 128,-1,40
 583 -10 583 -10 500.5 -10 c 128,-1,41
 418 -10 418 -10 340.5 -8.5 c 128,-1,42
 263 -7 263 -7 190 -4 c 128,-1,43
 117 -1 117 -1 105 -1 c 0,28,29
EndSplineSet
Validated: 33
EndChar

StartChar: i
Encoding: 105 105 24
Width: 931
Flags: W
LayerCount: 2
Fore
SplineSet
456 371 m 0,0,1
 428 372 428 372 408.5 346.5 c 128,-1,2
 389 321 389 321 390 291 c 0,3,4
 391 259 391 259 409.5 235.5 c 128,-1,5
 428 212 428 212 458 211 c 0,6,7
 491 209 491 209 521 233 c 128,-1,8
 551 257 551 257 550 287 c 0,9,10
 549 320 549 320 520 344.5 c 128,-1,11
 491 369 491 369 456 371 c 0,0,1
462 459 m 0,12,13
 542 462 542 462 599.5 413.5 c 128,-1,14
 657 365 657 365 657 288 c 0,15,16
 657 216 657 216 600 174.5 c 128,-1,17
 543 133 543 133 462 130 c 0,18,19
 394 128 394 128 343 169 c 128,-1,20
 292 210 292 210 292 273 c 0,21,22
 292 347 292 347 340.5 401.5 c 128,-1,23
 389 456 389 456 462 459 c 0,12,13
431 605 m 0,24,25
 372 604 372 604 318.5 562.5 c 128,-1,26
 265 521 265 521 232 463.5 c 128,-1,27
 199 406 199 406 180 349 c 128,-1,28
 161 292 161 292 163 257 c 0,29,30
 169 123 169 123 254.5 31 c 128,-1,31
 340 -61 340 -61 443 -54 c 0,32,33
 501 -50 501 -50 555.5 -23 c 128,-1,34
 610 4 610 4 649 43.5 c 128,-1,35
 688 83 688 83 717 128 c 128,-1,36
 746 173 746 173 761 213.5 c 128,-1,37
 776 254 776 254 777 284 c 0,38,39
 778 317 778 317 770 355 c 128,-1,40
 762 393 762 393 738 439 c 128,-1,41
 714 485 714 485 677 521.5 c 128,-1,42
 640 558 640 558 576 582 c 128,-1,43
 512 606 512 606 431 605 c 0,24,25
65 271 m 0,44,45
 63 453 63 453 178.5 589 c 128,-1,46
 294 725 294 725 470 731 c 0,47,48
 581 735 581 735 672 674.5 c 128,-1,49
 763 614 763 614 813 515 c 128,-1,50
 863 416 863 416 865 301 c 0,51,52
 867 185 867 185 820 84 c 128,-1,53
 773 -17 773 -17 683.5 -81.5 c 128,-1,54
 594 -146 594 -146 482 -151 c 0,55,56
 369 -155 369 -155 273 -97.5 c 128,-1,57
 177 -40 177 -40 121.5 58 c 128,-1,58
 66 156 66 156 65 271 c 0,44,45
EndSplineSet
Validated: 33
EndChar

StartChar: k
Encoding: 107 107 25
Width: 715
Flags: W
AnchorPoint: "top" 378 751 basechar 0
LayerCount: 2
Fore
SplineSet
421 -87 m 0,0,1
 407 -85 407 -85 396.5 -98 c 128,-1,2
 386 -111 386 -111 386 -128 c 0,3,4
 385 -145 385 -145 394 -159 c 128,-1,5
 403 -173 403 -173 419 -175 c 0,6,7
 437 -177 437 -177 453 -167.5 c 128,-1,8
 469 -158 469 -158 470 -140 c 0,9,10
 471 -120 471 -120 457 -105 c 128,-1,11
 443 -90 443 -90 421 -87 c 0,0,1
421 -34 m 0,12,13
 463 -36 463 -36 491.5 -64.5 c 128,-1,14
 520 -93 520 -93 521 -134 c 0,15,16
 522 -170 522 -170 492 -192 c 128,-1,17
 462 -214 462 -214 423 -212 c 0,18,19
 387 -210 387 -210 362.5 -186 c 128,-1,20
 338 -162 338 -162 337 -126 c 0,21,22
 336 -89 336 -89 361 -61 c 128,-1,23
 386 -33 386 -33 421 -34 c 0,12,13
89 253 m 0,24,25
 101 262 101 262 142.5 284 c 128,-1,26
 184 306 184 306 232.5 341.5 c 128,-1,27
 281 377 281 377 333 433 c 0,28,29
 398 502 398 502 427.5 558.5 c 128,-1,30
 457 615 457 615 476 696 c 0,31,32
 482 722 482 722 501 694 c 0,33,34
 526 657 526 657 524 614 c 0,35,36
 523 601 523 601 519 592 c 0,37,38
 484 523 484 523 433 462.5 c 128,-1,39
 382 402 382 402 320 342.5 c 128,-1,40
 258 283 258 283 230 250 c 0,41,42
 219 237 219 237 218 226 c 128,-1,43
 217 215 217 215 224.5 207 c 128,-1,44
 232 199 232 199 241 192.5 c 128,-1,45
 250 186 250 186 264.5 178.5 c 128,-1,46
 279 171 279 171 286 166 c 0,47,48
 306 152 306 152 334 143.5 c 128,-1,49
 362 135 362 135 382.5 133.5 c 128,-1,50
 403 132 403 132 437 131 c 0,51,52
 476 130 476 130 523.5 150 c 128,-1,53
 571 170 571 170 557 197 c 0,54,55
 549 212 549 212 488 283 c 0,56,57
 434 348 434 348 456 351 c 0,58,59
 459 352 459 352 464 352 c 0,60,61
 545 344 545 344 594 283 c 128,-1,62
 643 222 643 222 648 134 c 0,63,64
 649 110 649 110 628 94 c 128,-1,65
 607 78 607 78 568 69.5 c 128,-1,66
 529 61 529 61 495 57 c 128,-1,67
 461 53 461 53 417 51 c 0,68,69
 359 48 359 48 305 68.5 c 128,-1,70
 251 89 251 89 183 130 c 0,71,72
 176 134 176 134 162 143 c 0,73,74
 132 159 132 159 117.5 169.5 c 128,-1,75
 103 180 103 180 86 196 c 128,-1,76
 69 212 69 212 70 226 c 128,-1,77
 71 240 71 240 89 253 c 0,24,25
EndSplineSet
Validated: 33
EndChar

StartChar: l
Encoding: 108 108 26
Width: 624
Flags: W
HStem: 521 40<266 291> 625 103<252 330> 700 20G<408 485>
VStem: 246 91<630 722>
AnchorPoint: "top" 349 781 basechar 0
LayerCount: 2
Fore
SplineSet
290 625 m 0,0,1
 246 627 246 627 246 678.5 c 128,-1,2
 246 730 246 730 290 728 c 0,3,4
 337 726 337 726 337 674.5 c 128,-1,5
 337 623 337 623 290 625 c 0,0,1
431 578 m 0,6,7
 460 519 460 519 516 601 c 1,8,-1
 450 669 l 1,9,10
 416 611 416 611 431 578 c 0,6,7
46 -140 m 1,11,12
 105 157 105 157 374 400 c 1,13,14
 413 478 413 478 374 507 c 1,15,-1
 208 521 l 1,16,17
 226 565 226 565 380 561 c 1,18,-1
 413 721 l 1,19,20
 557 706 557 706 571 578 c 1,21,-1
 459 506 l 1,22,-1
 449 422 l 1,23,-1
 585 406 l 1,24,25
 576 372 576 372 422 360 c 1,26,27
 209 205 209 205 46 -140 c 1,11,12
EndSplineSet
Validated: 33
EndChar

StartChar: m
Encoding: 109 109 27
Width: 851
Flags: W
HStem: 67 130<427 521> 230 47<335 534>
VStem: 399 143<82 169>
AnchorPoint: "top" 400 791 basechar 0
LayerCount: 2
Fore
SplineSet
399 120 m 0,0,1
 401 154 401 154 426.5 176.5 c 128,-1,2
 452 199 452 199 485 197 c 0,3,4
 514 196 514 196 529.5 170 c 128,-1,5
 545 144 545 144 543 112 c 0,6,7
 542 89 542 89 521.5 77 c 128,-1,8
 501 65 501 65 475 67 c 0,9,10
 443 69 443 69 420 82 c 128,-1,11
 397 95 397 95 399 120 c 0,0,1
-226 96 m 1024,12,-1
1048 -227 m 1024,13,-1
83 24 m 0,14,15
 88 61 88 61 122 33 c 0,16,17
 132 25 132 25 157 0 c 0,18,19
 223 -65 223 -65 256 -76 c 0,20,21
 274 -81 274 -81 290 -77 c 0,22,23
 417 -44 417 -44 502 13 c 128,-1,24
 587 70 587 70 697 182 c 0,25,26
 719 207 719 207 705 226.5 c 128,-1,27
 691 246 691 246 654 252 c 0,28,29
 599 261 599 261 519 246 c 128,-1,30
 439 231 439 231 411 230 c 0,31,32
 401 230 401 230 385 228.5 c 128,-1,33
 369 227 369 227 356.5 226 c 128,-1,34
 344 225 344 225 326.5 224.5 c 128,-1,35
 309 224 309 224 298 224 c 128,-1,36
 287 224 287 224 272.5 225.5 c 128,-1,37
 258 227 258 227 251 230 c 128,-1,38
 244 233 244 233 236 238.5 c 128,-1,39
 228 244 228 244 229 252 c 128,-1,40
 230 260 230 260 232 271 c 0,41,42
 249 315 249 315 285.5 348.5 c 128,-1,43
 322 382 322 382 357.5 399.5 c 128,-1,44
 393 417 393 417 438 445.5 c 128,-1,45
 483 474 483 474 513 508 c 0,46,47
 548 547 548 547 568.5 597 c 128,-1,48
 589 647 589 647 611.5 692 c 128,-1,49
 634 737 634 737 675 772 c 0,50,51
 699 792 699 792 711 750 c 0,52,53
 725 701 725 701 711 657 c 0,54,55
 709 653 709 653 708 651 c 0,56,57
 690 612 690 612 663.5 577.5 c 128,-1,58
 637 543 637 543 622.5 526.5 c 128,-1,59
 608 510 608 510 562.5 468 c 128,-1,60
 517 426 517 426 505 414 c 0,61,62
 481 391 481 391 438 369.5 c 128,-1,63
 395 348 395 348 366.5 330.5 c 128,-1,64
 338 313 338 313 335 291 c 1,65,66
 341 275 341 275 396 278 c 128,-1,67
 451 281 451 281 522 297 c 128,-1,68
 593 313 593 313 611 328 c 0,69,70
 620 336 620 336 625 393 c 0,71,72
 627 422 627 422 634 424 c 0,73,74
 636 424 636 424 638 422 c 0,75,76
 700 378 700 378 731.5 340.5 c 128,-1,77
 763 303 763 303 773 244 c 0,78,79
 796 113 796 113 701 38 c 0,80,81
 579 -57 579 -57 491 -99 c 128,-1,82
 403 -141 403 -141 280 -144 c 0,83,84
 200 -146 200 -146 136 -96.5 c 128,-1,85
 72 -47 72 -47 83 24 c 0,14,15
EndSplineSet
Validated: 33
EndChar

StartChar: n
Encoding: 110 110 28
Width: 843
Flags: W
AnchorPoint: "top" 427 766 basechar 0
LayerCount: 2
Fore
SplineSet
479 197 m 1024,0,1
-232 96 m 1024,2,-1
1041 -227 m 1024,3,-1
77 24 m 0,4,5
 82 61 82 61 116 33 c 0,6,7
 126 25 126 25 151 0 c 0,8,9
 217 -65 217 -65 250 -76 c 0,10,11
 268 -81 268 -81 284 -77 c 0,12,13
 411 -44 411 -44 496 13 c 128,-1,14
 581 70 581 70 691 182 c 0,15,16
 713 207 713 207 699 226.5 c 128,-1,17
 685 246 685 246 648 252 c 0,18,19
 593 261 593 261 513 246 c 128,-1,20
 433 231 433 231 404 230 c 0,21,22
 394 230 394 230 378 228.5 c 128,-1,23
 362 227 362 227 350 226 c 128,-1,24
 338 225 338 225 320.5 224.5 c 128,-1,25
 303 224 303 224 292 224 c 128,-1,26
 281 224 281 224 266.5 225.5 c 128,-1,27
 252 227 252 227 245 230 c 128,-1,28
 238 233 238 233 230 238.5 c 128,-1,29
 222 244 222 244 223 252 c 128,-1,30
 224 260 224 260 226 271 c 0,31,32
 243 315 243 315 279 348 c 128,-1,33
 315 381 315 381 351 399 c 128,-1,34
 387 417 387 417 432 445.5 c 128,-1,35
 477 474 477 474 507 508 c 0,36,37
 542 547 542 547 562.5 597 c 128,-1,38
 583 647 583 647 605.5 692 c 128,-1,39
 628 737 628 737 669 772 c 0,40,41
 693 792 693 792 705 750 c 0,42,43
 719 701 719 701 705 657 c 0,44,45
 703 653 703 653 701 651 c 0,46,47
 683 612 683 612 657 577.5 c 128,-1,48
 631 543 631 543 616.5 526.5 c 128,-1,49
 602 510 602 510 556.5 468 c 128,-1,50
 511 426 511 426 499 414 c 0,51,52
 475 391 475 391 432 369.5 c 128,-1,53
 389 348 389 348 360.5 330.5 c 128,-1,54
 332 313 332 313 329 291 c 1,55,56
 335 275 335 275 389.5 278 c 128,-1,57
 444 281 444 281 515.5 297 c 128,-1,58
 587 313 587 313 605 328 c 0,59,60
 614 336 614 336 618 393 c 0,61,62
 620 422 620 422 628 424 c 0,63,64
 630 424 630 424 632 422 c 0,65,66
 694 378 694 378 725.5 340.5 c 128,-1,67
 757 303 757 303 767 244 c 0,68,69
 790 113 790 113 695 38 c 0,70,71
 573 -57 573 -57 485 -99 c 128,-1,72
 397 -141 397 -141 273 -144 c 0,73,74
 193 -146 193 -146 129.5 -96.5 c 128,-1,75
 66 -47 66 -47 77 24 c 0,4,5
EndSplineSet
Validated: 33
EndChar

StartChar: o
Encoding: 111 111 29
Width: 751
Flags: W
LayerCount: 2
Fore
SplineSet
577 47 m 1,0,-1
 382 500 l 1,1,-1
 409 49 l 1,2,-1
 577 47 l 1,0,-1
310 487 m 1,3,-1
 155 59 l 1,4,-1
 312 47 l 1,5,-1
 310 487 l 1,3,-1
85 -1 m 0,6,7
 68 -1 68 -1 123 170 c 128,-1,8
 178 341 178 341 248.5 513.5 c 128,-1,9
 319 686 319 686 339 688 c 0,10,11
 367 691 367 691 489 465 c 0,12,13
 621 220 621 220 669 82 c 0,14,15
 685 35 685 35 681 24 c 0,16,17
 674 8 674 8 618 -1 c 128,-1,18
 562 -10 562 -10 479.5 -10.5 c 128,-1,19
 397 -11 397 -11 320 -9 c 128,-1,20
 243 -7 243 -7 170 -4 c 128,-1,21
 97 -1 97 -1 85 -1 c 0,6,7
EndSplineSet
Validated: 33
EndChar

StartChar: r
Encoding: 114 114 30
Width: 818
Flags: W
AnchorPoint: "top" 420 761 basechar 0
LayerCount: 2
Fore
SplineSet
439 -146 m 0,0,1
 439 -119 439 -119 454 -104 c 128,-1,2
 469 -89 469 -89 495 -91 c 0,3,4
 522 -93 522 -93 538 -109 c 128,-1,5
 554 -125 554 -125 552 -152 c 0,6,7
 550 -176 550 -176 532 -188.5 c 128,-1,8
 514 -201 514 -201 492 -198 c 0,9,10
 475 -196 475 -196 457 -183 c 128,-1,11
 439 -170 439 -170 439 -146 c 0,0,1
302 -189 m 0,12,13
 289 -203 289 -203 292 -198 c 0,14,15
 303 -173 303 -173 377 -90 c 0,16,17
 436 -21 436 -21 466 -2 c 0,18,19
 515 29 515 29 597 22 c 0,20,21
 632 19 632 19 633 10 c 0,22,23
 634 5 634 5 609 1 c 0,24,25
 456 -23 456 -23 302 -189 c 0,12,13
452 313 m 0,26,27
 425 316 425 316 394.5 268.5 c 128,-1,28
 364 221 364 221 369 204 c 0,29,30
 374 186 374 186 420 185.5 c 128,-1,31
 466 185 466 185 471 198 c 0,32,33
 478 217 478 217 474.5 243 c 128,-1,34
 471 269 471 269 463.5 290.5 c 128,-1,35
 456 312 456 312 452 313 c 0,26,27
110 125 m 0,36,37
 68 110 68 110 78 156 c 0,38,39
 95 235 95 235 233 430 c 2,40,-1
 280 494 l 2,41,42
 353 589 353 589 440 663 c 128,-1,43
 527 737 527 737 575 735 c 0,44,45
 606 734 606 734 641.5 658 c 128,-1,46
 677 582 677 582 699.5 485.5 c 128,-1,47
 722 389 722 389 731.5 297.5 c 128,-1,48
 741 206 741 206 721 174 c 0,49,50
 710 155 710 155 629.5 155.5 c 128,-1,51
 549 156 549 156 535 148 c 0,52,53
 522 139 522 139 521 114 c 128,-1,54
 520 89 520 89 525 65 c 128,-1,55
 530 41 530 41 525 20.5 c 128,-1,56
 520 0 520 0 499 -1 c 0,57,58
 473 -3 473 -3 472 25 c 128,-1,59
 471 53 471 53 472 91 c 128,-1,60
 473 129 473 129 453 142 c 0,61,62
 433 154 433 154 399.5 150.5 c 128,-1,63
 366 147 366 147 334.5 150 c 128,-1,64
 303 153 303 153 303 170 c 0,65,66
 302 198 302 198 336 255.5 c 128,-1,67
 370 313 370 313 407.5 358.5 c 128,-1,68
 445 404 445 404 457 403 c 0,69,70
 484 400 484 400 495.5 353.5 c 128,-1,71
 507 307 507 307 515 261 c 128,-1,72
 523 215 523 215 539 213 c 0,73,74
 568 212 568 212 602.5 212.5 c 128,-1,75
 637 213 637 213 663 226 c 128,-1,76
 689 239 689 239 684 262 c 0,77,78
 681 276 681 276 674 308.5 c 128,-1,79
 667 341 667 341 661 364 c 128,-1,80
 655 387 655 387 647 421 c 128,-1,81
 639 455 639 455 632 479.5 c 128,-1,82
 625 504 625 504 615 532.5 c 128,-1,83
 605 561 605 561 596 580 c 128,-1,84
 587 599 587 599 576 615.5 c 128,-1,85
 565 632 565 632 553 638.5 c 128,-1,86
 541 645 541 645 528 642 c 0,87,88
 478 631 478 631 408 549.5 c 128,-1,89
 338 468 338 468 281.5 377 c 128,-1,90
 225 286 225 286 174.5 208 c 128,-1,91
 124 130 124 130 110 125 c 0,36,37
EndSplineSet
Validated: 37
EndChar

StartChar: s
Encoding: 115 115 31
Width: 971
Flags: W
AnchorPoint: "top" 468 798 basechar 0
LayerCount: 2
Fore
SplineSet
58 132 m 0,0,1
 58 135 58 135 79.5 146.5 c 128,-1,2
 101 158 101 158 137 180 c 128,-1,3
 173 202 173 202 218 233 c 128,-1,4
 263 264 263 264 312.5 312.5 c 128,-1,5
 362 361 362 361 408.5 419.5 c 128,-1,6
 455 478 455 478 496.5 560.5 c 128,-1,7
 538 643 538 643 562 736 c 0,8,9
 570 768 570 768 601 742 c 0,10,11
 634 713 634 713 643 670 c 0,12,13
 648 642 648 642 636 625 c 0,14,15
 634 623 634 623 573 534.5 c 128,-1,16
 512 446 512 446 472.5 393.5 c 128,-1,17
 433 341 433 341 367 266 c 128,-1,18
 301 191 301 191 247 152 c 0,19,20
 204 120 204 120 278 95 c 0,21,22
 349 71 349 71 436 76 c 0,23,24
 495 79 495 79 530 102 c 128,-1,25
 565 125 565 125 574.5 156 c 128,-1,26
 584 187 584 187 587 218 c 128,-1,27
 590 249 590 249 594.5 270.5 c 128,-1,28
 599 292 599 292 615 293 c 0,29,30
 645 294 645 294 652.5 275 c 128,-1,31
 660 256 660 256 664.5 220.5 c 128,-1,32
 669 185 669 185 687 162 c 0,33,34
 701 144 701 144 732 127.5 c 128,-1,35
 763 111 763 111 782 114 c 0,36,37
 873 128 873 128 790 271 c 0,38,39
 780 287 780 287 761 316 c 0,40,41
 730 368 730 368 738 369 c 0,42,43
 819 352 819 352 861.5 285 c 128,-1,44
 904 218 904 218 906 127 c 0,45,46
 907 85 907 85 862.5 64.5 c 128,-1,47
 818 44 818 44 777 63 c 0,48,49
 726 91 726 91 672 88.5 c 128,-1,50
 618 86 618 86 585.5 71.5 c 128,-1,51
 553 57 553 57 506 40 c 128,-1,52
 459 23 459 23 421 24 c 0,53,54
 361 25 361 25 209.5 67 c 128,-1,55
 58 109 58 109 58 132 c 0,0,1
EndSplineSet
Validated: 33
EndChar

StartChar: t
Encoding: 116 116 32
Width: 681
Flags: W
HStem: 521 40<300 326> 594 104<287 365> 700 20G<443 520> 733 104<284 362>
VStem: 281 91<600 692 739 830>
AnchorPoint: "top" 476 855 basechar 0
LayerCount: 2
Fore
SplineSet
322 733 m 0,0,1
 278 735 278 735 278 787.5 c 128,-1,2
 278 840 278 840 322 838 c 0,3,4
 369 836 369 836 369 783.5 c 128,-1,5
 369 731 369 731 322 733 c 0,0,1
325 594 m 0,6,7
 281 596 281 596 281 648 c 128,-1,8
 281 700 281 700 325 698 c 0,9,10
 372 696 372 696 372 644 c 128,-1,11
 372 592 372 592 325 594 c 0,6,7
466 578 m 0,12,13
 495 519 495 519 551 600 c 1,14,-1
 484 670 l 1,15,16
 451 611 451 611 466 578 c 0,12,13
81 -140 m 1,17,18
 140 157 140 157 409 400 c 1,19,20
 448 478 448 478 409 507 c 1,21,-1
 243 521 l 1,22,23
 261 565 261 565 415 561 c 1,24,-1
 447 721 l 1,25,26
 591 706 591 706 606 578 c 1,27,-1
 494 506 l 1,28,-1
 483 422 l 1,29,-1
 620 406 l 1,30,31
 611 372 611 372 457 360 c 1,32,33
 244 205 244 205 81 -140 c 1,17,18
EndSplineSet
Validated: 33
EndChar

StartChar: u
Encoding: 117 117 33
Width: 927
Flags: WO
LayerCount: 2
Fore
SplineSet
468 387 m 0,0,1
 574 387 574 387 581 281 c 0,2,3
 584 236 584 236 556 209.5 c 128,-1,4
 528 183 528 183 484 181 c 128,-1,5
 440 179 440 179 411.5 202 c 128,-1,6
 383 225 383 225 382 275 c 0,7,8
 380 332 380 332 400.5 359.5 c 128,-1,9
 421 387 421 387 468 387 c 0,0,1
437 605 m 0,10,11
 378 604 378 604 324.5 562.5 c 128,-1,12
 271 521 271 521 238 463.5 c 128,-1,13
 205 406 205 406 186 349 c 128,-1,14
 167 292 167 292 169 257 c 0,15,16
 175 123 175 123 260.5 31 c 128,-1,17
 346 -61 346 -61 450 -54 c 0,18,19
 508 -50 508 -50 562 -23 c 128,-1,20
 616 4 616 4 655 43.5 c 128,-1,21
 694 83 694 83 723.5 128 c 128,-1,22
 753 173 753 173 767.5 213.5 c 128,-1,23
 782 254 782 254 783 284 c 0,24,25
 784 317 784 317 776 355 c 128,-1,26
 768 393 768 393 744 439 c 128,-1,27
 720 485 720 485 683 521.5 c 128,-1,28
 646 558 646 558 582 582 c 128,-1,29
 518 606 518 606 437 605 c 0,10,11
71 271 m 0,30,31
 69 453 69 453 184.5 589 c 128,-1,32
 300 725 300 725 476 731 c 0,33,34
 587 735 587 735 678 674.5 c 128,-1,35
 769 614 769 614 819 515 c 128,-1,36
 869 416 869 416 871 301 c 0,37,38
 873 185 873 185 826 84 c 128,-1,39
 779 -17 779 -17 689.5 -81.5 c 128,-1,40
 600 -146 600 -146 488 -151 c 0,41,42
 375 -155 375 -155 279 -97.5 c 128,-1,43
 183 -40 183 -40 127.5 58 c 128,-1,44
 72 156 72 156 71 271 c 0,30,31
EndSplineSet
Validated: 33
EndChar

StartChar: v
Encoding: 118 118 34
Width: 776
Flags: W
AnchorPoint: "top" 402 777 basechar 0
LayerCount: 2
Fore
SplineSet
416 -126 m 0,0,1
 418 -92 418 -92 443 -69.5 c 128,-1,2
 468 -47 468 -47 502 -49 c 0,3,4
 531 -50 531 -50 546 -75.5 c 128,-1,5
 561 -101 561 -101 560 -134 c 0,6,7
 559 -157 559 -157 538 -169 c 128,-1,8
 517 -181 517 -181 492 -179 c 0,9,10
 460 -177 460 -177 437 -164 c 128,-1,11
 414 -151 414 -151 416 -126 c 0,0,1
439 313 m 0,12,13
 412 316 412 316 381 268.5 c 128,-1,14
 350 221 350 221 355 204 c 0,15,16
 360 186 360 186 407 185.5 c 128,-1,17
 454 185 454 185 459 198 c 0,18,19
 466 217 466 217 462.5 243 c 128,-1,20
 459 269 459 269 451 290.5 c 128,-1,21
 443 312 443 312 439 313 c 0,12,13
97 125 m 0,22,23
 55 110 55 110 66 156 c 0,24,25
 83 235 83 235 221 430 c 2,26,-1
 267 494 l 2,27,28
 340 589 340 589 427 663 c 128,-1,29
 514 737 514 737 562 735 c 0,30,31
 593 734 593 734 628.5 658 c 128,-1,32
 664 582 664 582 686.5 485.5 c 128,-1,33
 709 389 709 389 718.5 297.5 c 128,-1,34
 728 206 728 206 708 174 c 0,35,36
 697 155 697 155 617 155.5 c 128,-1,37
 537 156 537 156 522 150 c 0,38,39
 509 141 509 141 508.5 115.5 c 128,-1,40
 508 90 508 90 513 66 c 128,-1,41
 518 42 518 42 513 21.5 c 128,-1,42
 508 1 508 1 486 0 c 0,43,44
 460 -2 460 -2 459.5 26 c 128,-1,45
 459 54 459 54 460 92 c 128,-1,46
 461 130 461 130 440 143 c 0,47,48
 420 155 420 155 386.5 151 c 128,-1,49
 353 147 353 147 321.5 150 c 128,-1,50
 290 153 290 153 290 170 c 0,51,52
 289 198 289 198 322.5 255.5 c 128,-1,53
 356 313 356 313 394 358.5 c 128,-1,54
 432 404 432 404 443 403 c 0,55,56
 470 400 470 400 482 353.5 c 128,-1,57
 494 307 494 307 502 261 c 128,-1,58
 510 215 510 215 525 213 c 0,59,60
 554 212 554 212 589 212.5 c 128,-1,61
 624 213 624 213 650 226 c 128,-1,62
 676 239 676 239 671 262 c 0,63,64
 668 276 668 276 660.5 308.5 c 128,-1,65
 653 341 653 341 647.5 364 c 128,-1,66
 642 387 642 387 634 421 c 128,-1,67
 626 455 626 455 618.5 479.5 c 128,-1,68
 611 504 611 504 601.5 532.5 c 128,-1,69
 592 561 592 561 582.5 580 c 128,-1,70
 573 599 573 599 562.5 615.5 c 128,-1,71
 552 632 552 632 539.5 638.5 c 128,-1,72
 527 645 527 645 515 642 c 0,73,74
 465 631 465 631 395 549.5 c 128,-1,75
 325 468 325 468 269 377 c 128,-1,76
 213 286 213 286 162 208 c 128,-1,77
 111 130 111 130 97 125 c 0,22,23
EndSplineSet
Validated: 33
EndChar

StartChar: w
Encoding: 119 119 35
Width: 694
Flags: W
AnchorPoint: "top" 310 779 basechar 0
LayerCount: 2
Fore
SplineSet
248 210 m 0,0,1
 250 244 250 244 275 266.5 c 128,-1,2
 300 289 300 289 334 287 c 0,3,4
 363 286 363 286 378 260 c 128,-1,5
 393 234 393 234 391 202 c 0,6,7
 390 179 390 179 369.5 167 c 128,-1,8
 349 155 349 155 324 157 c 0,9,10
 292 159 292 159 269 172 c 128,-1,11
 246 185 246 185 248 210 c 0,0,1
544 47 m 1024,12,-1
319 559 m 1,13,-1
 122 59 l 1,14,-1
 544 46 l 1,15,-1
 319 559 l 1,13,-1
52 -1 m 0,16,17
 35 -1 35 -1 90 170 c 128,-1,18
 145 341 145 341 216 513.5 c 128,-1,19
 287 686 287 686 306 688 c 0,20,21
 334 691 334 691 457 465 c 0,22,23
 589 220 589 220 636 83 c 0,24,25
 652 36 652 36 648 25 c 0,26,27
 641 9 641 9 585 -0.5 c 128,-1,28
 529 -10 529 -10 447 -10 c 128,-1,29
 365 -10 365 -10 287.5 -8.5 c 128,-1,30
 210 -7 210 -7 137 -4 c 128,-1,31
 64 -1 64 -1 52 -1 c 0,16,17
EndSplineSet
Validated: 33
EndChar

StartChar: x
Encoding: 120 120 36
Width: 705
Flags: W
AnchorPoint: "top" 370 744 basechar 0
LayerCount: 2
Fore
SplineSet
242 433 m 0,0,1
 266 411 266 411 303 348.5 c 128,-1,2
 340 286 340 286 342 270 c 0,3,4
 345 242 345 242 309 279 c 0,5,6
 263 325 263 325 240 373 c 0,7,8
 239 374 239 374 238 376 c 0,9,10
 227 401 227 401 230 427 c 0,11,12
 234 440 234 440 242 433 c 0,0,1
411 -87 m 0,13,14
 397 -85 397 -85 386.5 -98 c 128,-1,15
 376 -111 376 -111 376 -128 c 0,16,17
 375 -145 375 -145 384 -159 c 128,-1,18
 393 -173 393 -173 409 -175 c 0,19,20
 427 -177 427 -177 443 -167.5 c 128,-1,21
 459 -158 459 -158 460 -140 c 0,22,23
 461 -120 461 -120 447 -105 c 128,-1,24
 433 -90 433 -90 411 -87 c 0,13,14
411 -34 m 0,25,26
 453 -36 453 -36 481.5 -64.5 c 128,-1,27
 510 -93 510 -93 511 -134 c 0,28,29
 512 -170 512 -170 482 -192 c 128,-1,30
 452 -214 452 -214 413 -212 c 0,31,32
 377 -210 377 -210 352.5 -186 c 128,-1,33
 328 -162 328 -162 327 -126 c 0,34,35
 326 -89 326 -89 351 -61 c 128,-1,36
 376 -33 376 -33 411 -34 c 0,25,26
79 253 m 0,37,38
 91 262 91 262 132.5 284 c 128,-1,39
 174 306 174 306 222 342 c 128,-1,40
 270 378 270 378 323 433 c 0,41,42
 388 502 388 502 417 558.5 c 128,-1,43
 446 615 446 615 466 696 c 0,44,45
 472 722 472 722 490 694 c 0,46,47
 515 657 515 657 514 614 c 0,48,49
 513 601 513 601 509 592 c 0,50,51
 474 523 474 523 423 462.5 c 128,-1,52
 372 402 372 402 310 342.5 c 128,-1,53
 248 283 248 283 220 250 c 0,54,55
 209 237 209 237 208 226 c 128,-1,56
 207 215 207 215 214.5 207 c 128,-1,57
 222 199 222 199 231 192.5 c 128,-1,58
 240 186 240 186 254 178.5 c 128,-1,59
 268 171 268 171 275 166 c 0,60,61
 295 152 295 152 323.5 143.5 c 128,-1,62
 352 135 352 135 372.5 133.5 c 128,-1,63
 393 132 393 132 427 131 c 0,64,65
 466 130 466 130 511 149 c 128,-1,66
 556 168 556 168 547 197 c 0,67,68
 542 211 542 211 529 238 c 0,69,70
 512 275 512 275 520 280 c 0,71,72
 526 285 526 285 546 281 c 0,73,74
 619 266 619 266 638 134 c 0,75,76
 641 111 641 111 620.5 94.5 c 128,-1,77
 600 78 600 78 560 69.5 c 128,-1,78
 520 61 520 61 485.5 57 c 128,-1,79
 451 53 451 53 407 51 c 0,80,81
 349 48 349 48 295 68.5 c 128,-1,82
 241 89 241 89 173 130 c 0,83,84
 166 134 166 134 152 143 c 0,85,86
 122 159 122 159 107.5 169.5 c 128,-1,87
 93 180 93 180 75.5 196 c 128,-1,88
 58 212 58 212 59.5 226 c 128,-1,89
 61 240 61 240 79 253 c 0,37,38
EndSplineSet
Validated: 37
EndChar

StartChar: y
Encoding: 121 121 37
Width: 648
Flags: W
AnchorPoint: "top" 302 790 basechar 0
LayerCount: 2
Fore
SplineSet
523 257 m 1,0,-1
 151 263 l 1,1,-1
 314 -79 l 1,2,-1
 523 257 l 1,0,-1
298 723 m 0,3,4
 325 722 325 722 395.5 622 c 128,-1,5
 466 522 466 522 524.5 416 c 128,-1,6
 583 310 583 310 581 290 c 0,7,8
 577 253 577 253 459 68 c 128,-1,9
 341 -117 341 -117 321 -114 c 0,10,11
 307 -112 307 -112 245.5 -18.5 c 128,-1,12
 184 75 184 75 129.5 178 c 128,-1,13
 75 281 75 281 75 307 c 0,14,15
 75 324 75 324 119 425.5 c 128,-1,16
 163 527 163 527 218 625.5 c 128,-1,17
 273 724 273 724 298 723 c 0,3,4
484 307 m 1024,18,-1
294 666 m 1,19,20
 196 478 l 0,21,22
 119 323 119 323 130 312 c 0,23,24
 138 306 138 306 231.5 305 c 128,-1,25
 325 304 325 304 414 307 c 2,26,-1
 504 309 l 1,27,-1
 294 666 l 1,19,20
EndSplineSet
Validated: 33
EndChar

StartChar: z
Encoding: 122 122 38
Width: 957
Flags: W
AnchorPoint: "top" 447 790 basechar 0
LayerCount: 2
Fore
SplineSet
709 -85 m 0,0,1
 711 -51 711 -51 736 -28.5 c 128,-1,2
 761 -6 761 -6 795 -8 c 0,3,4
 824 -9 824 -9 839 -34.5 c 128,-1,5
 854 -60 854 -60 852 -93 c 0,6,7
 851 -116 851 -116 830.5 -128 c 128,-1,8
 810 -140 810 -140 784 -138 c 0,9,10
 752 -136 752 -136 729.5 -123 c 128,-1,11
 707 -110 707 -110 709 -85 c 0,0,1
483 -85 m 0,12,13
 485 -51 485 -51 510.5 -28.5 c 128,-1,14
 536 -6 536 -6 569 -8 c 0,15,16
 598 -9 598 -9 613.5 -34.5 c 128,-1,17
 629 -60 629 -60 627 -93 c 0,18,19
 626 -116 626 -116 605.5 -128 c 128,-1,20
 585 -140 585 -140 559 -138 c 0,21,22
 527 -136 527 -136 504 -123 c 128,-1,23
 481 -110 481 -110 483 -85 c 0,12,13
52 132 m 0,24,25
 52 135 52 135 73.5 146.5 c 128,-1,26
 95 158 95 158 131 180 c 128,-1,27
 167 202 167 202 212 233 c 128,-1,28
 257 264 257 264 306.5 312.5 c 128,-1,29
 356 361 356 361 402.5 419.5 c 128,-1,30
 449 478 449 478 490 560.5 c 128,-1,31
 531 643 531 643 556 736 c 0,32,33
 564 768 564 768 595 742 c 0,34,35
 628 713 628 713 637 670 c 0,36,37
 642 642 642 642 630 625 c 0,38,39
 628 623 628 623 567 534.5 c 128,-1,40
 506 446 506 446 466.5 393.5 c 128,-1,41
 427 341 427 341 361 266 c 128,-1,42
 295 191 295 191 241 152 c 0,43,44
 198 120 198 120 271 95 c 0,45,46
 342 71 342 71 430 76 c 0,47,48
 489 79 489 79 524 102 c 128,-1,49
 559 125 559 125 568.5 156 c 128,-1,50
 578 187 578 187 581 218 c 128,-1,51
 584 249 584 249 588.5 270.5 c 128,-1,52
 593 292 593 292 609 293 c 0,53,54
 639 294 639 294 646.5 275 c 128,-1,55
 654 256 654 256 658.5 220.5 c 128,-1,56
 663 185 663 185 681 162 c 0,57,58
 695 144 695 144 726 127.5 c 128,-1,59
 757 111 757 111 776 114 c 0,60,61
 867 128 867 128 783 271 c 0,62,63
 773 287 773 287 755 316 c 0,64,65
 724 368 724 368 732 369 c 0,66,67
 813 352 813 352 855.5 285 c 128,-1,68
 898 218 898 218 900 127 c 0,69,70
 901 85 901 85 856.5 64.5 c 128,-1,71
 812 44 812 44 771 63 c 0,72,73
 720 91 720 91 666 88.5 c 128,-1,74
 612 86 612 86 579.5 71.5 c 128,-1,75
 547 57 547 57 500 40 c 128,-1,76
 453 23 453 23 415 24 c 0,77,78
 355 25 355 25 203.5 67 c 128,-1,79
 52 109 52 109 52 132 c 0,24,25
EndSplineSet
Validated: 33
EndChar

StartChar: braceleft
Encoding: 123 123 39
Width: 772
Flags: W
LayerCount: 2
Fore
SplineSet
444 740 m 0,0,1
 471 729 471 729 470 681 c 0,2,3
 468 642 468 642 440 598 c 0,4,5
 356 466 356 466 261 352 c 1,6,7
 407 248 407 248 429 360 c 0,8,9
 448 462 448 462 453 478 c 0,10,11
 455 486 455 486 464 409 c 0,12,13
 473 336 473 336 520 346 c 0,14,15
 572 356 572 356 569 368 c 0,16,17
 546 460 546 460 554.5 467.5 c 128,-1,18
 563 475 563 475 589 432 c 0,19,20
 703 246 703 246 680 182 c 0,21,22
 669 149 669 149 628 111 c 0,23,24
 534 20 534 20 384 -33 c 0,25,26
 236 -85 236 -85 159 -53 c 0,27,28
 118 -36 118 -36 138 69 c 1,29,30
 166 93 166 93 193 116 c 1,31,32
 153 17 153 17 206 -20 c 0,33,34
 243 -46 243 -46 362 -1 c 0,35,36
 434 27 434 27 555 112 c 0,37,38
 637 169 637 169 625 236 c 0,39,40
 612 299 612 299 592 314 c 1,41,42
 537 301 537 301 522 306 c 0,43,44
 456 331 456 331 458 334 c 1,45,46
 420 224 420 224 368.5 249.5 c 128,-1,47
 317 275 317 275 288 287 c 1,48,-1
 204 342 l 1,49,50
 327 461 327 461 388 588 c 0,51,52
 427 668 427 668 420 701 c 1,53,54
 435 744 435 744 444 740 c 0,0,1
110 388 m 0,55,56
 124 391 124 391 133 364 c 0,57,58
 140 342 140 342 106 327 c 0,59,60
 67 310 67 310 70 349 c 0,61,62
 71 380 71 380 110 388 c 0,55,56
EndSplineSet
Validated: 37
EndChar

StartChar: braceright
Encoding: 125 125 40
Width: 606
Flags: W
LayerCount: 2
Fore
SplineSet
115 387 m 0,0,1
 149 383 149 383 148 350 c 0,2,3
 148 321 148 321 115 326 c 0,4,5
 84 330 84 330 84 359 c 0,6,7
 84 391 84 391 115 387 c 0,0,1
EndSplineSet
Validated: 33
EndChar

StartChar: asciitilde
Encoding: 126 126 41
Width: 728
Flags: W
LayerCount: 2
Fore
SplineSet
427 176 m 1,0,1
 418 172 418 172 405 165 c 128,-1,2
 392 158 392 158 371.5 137.5 c 128,-1,3
 351 117 351 117 355 98 c 0,4,5
 357 90 357 90 366.5 87 c 128,-1,6
 376 84 376 84 388.5 85 c 128,-1,7
 401 86 401 86 413.5 89 c 128,-1,8
 426 92 426 92 434 96 c 2,9,-1
 442 98 l 1,10,-1
 427 176 l 1,0,1
60 111 m 0,11,12
 106 176 106 176 206 260 c 128,-1,13
 306 344 306 344 354 401 c 0,14,15
 412 472 412 472 439 507.5 c 128,-1,16
 466 543 466 543 499 598 c 128,-1,17
 532 653 532 653 555 711 c 0,18,19
 569 748 569 748 596 729 c 0,20,21
 621 713 621 713 623 678 c 1,22,-1
 621 657 l 1,23,24
 613 631 613 631 531 523 c 128,-1,25
 449 415 449 415 426 367 c 0,26,27
 423 361 423 361 439 356 c 128,-1,28
 455 351 455 351 480.5 346.5 c 128,-1,29
 506 342 506 342 537 329.5 c 128,-1,30
 568 317 568 317 595.5 299.5 c 128,-1,31
 623 282 623 282 641 246.5 c 128,-1,32
 659 211 659 211 659 163 c 0,33,34
 659 127 659 127 641.5 109.5 c 128,-1,35
 624 92 624 92 600.5 90 c 128,-1,36
 577 88 577 88 547.5 79.5 c 128,-1,37
 518 71 518 71 504 52 c 0,38,39
 491 34 491 34 494.5 11 c 128,-1,40
 498 -12 498 -12 496.5 -32.5 c 128,-1,41
 495 -53 495 -53 476.5 -54 c 128,-1,42
 458 -55 458 -55 450.5 -42.5 c 128,-1,43
 443 -30 443 -30 444.5 -13 c 128,-1,44
 446 4 446 4 444 22 c 128,-1,45
 442 40 442 40 432 46 c 0,46,47
 418 54 418 54 392.5 55 c 128,-1,48
 367 56 367 56 345.5 54 c 128,-1,49
 324 52 324 52 305.5 53.5 c 128,-1,50
 287 55 287 55 284 63 c 0,51,52
 277 82 277 82 343.5 160 c 128,-1,53
 410 238 410 238 439 244 c 0,54,55
 455 247 455 247 465.5 231 c 128,-1,56
 476 215 476 215 479.5 194.5 c 128,-1,57
 483 174 483 174 493 156.5 c 128,-1,58
 503 139 503 139 518 139 c 0,59,60
 538 139 538 139 549 140 c 128,-1,61
 560 141 560 141 575 144 c 128,-1,62
 590 147 590 147 596.5 155.5 c 128,-1,63
 603 164 603 164 602 178 c 0,64,65
 600 215 600 215 553 250 c 128,-1,66
 506 285 506 285 447 301 c 128,-1,67
 388 317 388 317 351 307 c 0,68,69
 348 307 348 307 285 258 c 0,70,71
 53 76 53 76 51 94 c 0,72,73
 51 99 51 99 60 111 c 0,11,12
EndSplineSet
Validated: 33
EndChar

StartChar: uni030A
Encoding: 778 778 42
Width: 606
Flags: W
AnchorPoint: "top" 304 495 mark 0
LayerCount: 2
Fore
SplineSet
283 707 m 1,0,-1
 301 707 l 1,1,-1
 309 543 l 1,2,-1
 293 545 l 1,3,-1
 283 707 l 1,0,-1
254 657 m 0,4,5
 247 651 247 651 242 633 c 0,6,7
 241 627 241 627 243 618.5 c 128,-1,8
 245 610 245 610 252 602 c 0,9,10
 257 597 257 597 266 593.5 c 128,-1,11
 275 590 275 590 289 588 c 0,12,13
 297 587 297 587 311 587.5 c 128,-1,14
 325 588 325 588 342 594 c 0,15,16
 347 597 347 597 352 603.5 c 128,-1,17
 357 610 357 610 359 621 c 0,18,19
 360 629 360 629 354.5 638.5 c 128,-1,20
 349 648 349 648 337 655 c 0,21,22
 330 659 330 659 318 662.5 c 128,-1,23
 306 666 306 666 289 667 c 0,24,25
 283 667 283 667 274 665 c 128,-1,26
 265 663 265 663 254 657 c 0,4,5
287 690 m 0,27,28
 376 692 376 692 380 616 c 0,29,30
 383 560 383 560 286 568 c 0,31,32
 218 574 218 574 218 631 c 0,33,34
 218 689 218 689 287 690 c 0,27,28
EndSplineSet
Validated: 37
EndChar

StartChar: j
Encoding: 106 106 43
Width: 604
Flags: W
AnchorPoint: "top" 315 811 basechar 0
LayerCount: 2
Fore
SplineSet
221 367 m 0,0,1
 351 428 351 428 338 238 c 1,2,3
 341 201 341 201 369 155 c 0,4,5
 405 98 405 98 396 67 c 0,6,7
 391 51 391 51 247 51 c 1,8,-1
 151 72 l 1,9,10
 151 128 151 128 221 110 c 0,11,12
 295 90 295 90 322 115 c 0,13,14
 334 126 334 126 287 165 c 0,15,16
 273 177 273 177 217 174 c 0,17,18
 159 170 159 170 148 175 c 24,19,20
 123 186 123 186 152 207 c 0,21,22
 162 215 162 215 232 219 c 0,23,24
 282 223 282 223 285 254 c 0,25,26
 291 342 291 342 242 319 c 0,27,28
 153 280 153 280 136 287 c 0,29,30
 88 306 88 306 221 367 c 0,0,1
259 436 m 1,31,32
 382 688 382 688 374 768 c 0,33,34
 446 723 l 0,35,-1
 259 436 l 1,31,32
EndSplineSet
Validated: 33
EndChar

StartChar: c
Encoding: 99 99 44
Width: 605
Flags: W
AnchorPoint: "top" 315 811 basechar 0
LayerCount: 2
Fore
SplineSet
227 -49 m 0,0,1
 228 -29 228 -29 243 -15.5 c 128,-1,2
 258 -2 258 -2 279 -3 c 0,3,4
 296 -4 296 -4 305 -19.5 c 128,-1,5
 314 -35 314 -35 313 -54 c 0,6,7
 312 -67 312 -67 300 -75 c 128,-1,8
 288 -83 288 -83 272 -82 c 0,9,10
 253 -81 253 -81 239.5 -72.5 c 128,-1,11
 226 -64 226 -64 227 -49 c 0,0,1
221 367 m 0,12,13
 351 428 351 428 338 238 c 1,14,15
 341 201 341 201 369 155 c 0,16,17
 405 98 405 98 396 68 c 0,18,19
 391 52 391 52 247 52 c 1,20,-1
 151 73 l 1,21,22
 151 129 151 129 221 111 c 0,23,24
 295 91 295 91 322 116 c 0,25,26
 334 127 334 127 287 166 c 0,27,28
 273 178 273 178 217 175 c 0,29,30
 159 171 159 171 148 176 c 24,31,32
 123 187 123 187 152 207 c 0,33,34
 162 215 162 215 232 219 c 0,35,36
 282 223 282 223 285 254 c 0,37,38
 291 342 291 342 242 319 c 0,39,40
 153 280 153 280 136 287 c 0,41,42
 88 306 88 306 221 367 c 0,12,13
259 436 m 1,43,44
 382 688 382 688 374 768 c 0,45,46
 446 723 l 0,47,-1
 259 436 l 1,43,44
EndSplineSet
Validated: 33
EndChar

StartChar: zero
Encoding: 48 48 45
Width: 545
Flags: W
LayerCount: 2
Fore
SplineSet
390 543 m 25,0,-1
 79 530 l 25,1,-1
 85 176 l 25,2,-1
 392 186 l 25,3,-1
 390 543 l 25,0,-1
44 131 m 25,4,-1
 36 578 l 25,5,-1
 460 584 l 25,6,-1
 462 145 l 25,7,-1
 44 131 l 25,4,-1
EndSplineSet
Validated: 1
EndChar

StartChar: one
Encoding: 49 49 46
Width: 605
Flags: W
LayerCount: 2
Fore
SplineSet
274 597 m 24,0,1
 72 612 72 612 88 395 c 24,2,3
 101 217 101 217 303 202 c 24,4,5
 523 185 523 185 510 364 c 24,6,7
 494 580 494 580 274 597 c 24,0,1
278 625 m 24,8,9
 539 605 539 605 554 350 c 24,10,11
 567 128 567 128 306 147 c 24,12,13
 74 165 74 165 60 387 c 24,14,15
 46 642 46 642 278 625 c 24,8,9
EndSplineSet
Validated: 33
EndChar

StartChar: two
Encoding: 50 50 47
Width: 605
Flags: W
LayerCount: 2
Fore
SplineSet
194 84 m 1049,0,-1
247 614 m 25,1,-1
 298 610 l 25,2,-1
 318 176 l 25,3,-1
 278 182 l 25,4,-1
 247 614 l 25,1,-1
274 597 m 24,5,6
 72 612 72 612 88 395 c 24,7,8
 101 217 101 217 303 202 c 24,9,10
 523 185 523 185 510 364 c 24,11,12
 494 580 494 580 274 597 c 24,5,6
278 625 m 24,13,14
 539 605 539 605 554 350 c 24,15,16
 567 128 567 128 306 147 c 24,17,18
 74 165 74 165 60 387 c 24,19,20
 46 642 46 642 278 625 c 24,13,14
EndSplineSet
Validated: 37
EndChar

StartChar: three
Encoding: 51 51 48
Width: 605
Flags: W
LayerCount: 2
Fore
SplineSet
529 342 m 25,0,-1
 77 367 l 25,1,-1
 71 415 l 25,2,-1
 523 388 l 25,3,-1
 529 342 l 25,0,-1
194 84 m 1049,4,-1
247 358 m 25,5,-1
 298 354 l 25,6,-1
 318 176 l 25,7,-1
 278 182 l 25,8,-1
 247 358 l 25,5,-1
274 597 m 24,9,10
 72 612 72 612 88 395 c 24,11,12
 101 217 101 217 303 202 c 24,13,14
 523 185 523 185 510 364 c 24,15,16
 494 580 494 580 274 597 c 24,9,10
278 625 m 24,17,18
 539 605 539 605 554 350 c 24,19,20
 567 128 567 128 306 147 c 24,21,22
 74 165 74 165 60 387 c 24,23,24
 46 642 46 642 278 625 c 24,17,18
EndSplineSet
Validated: 37
EndChar

StartChar: four
Encoding: 52 52 49
Width: 605
Flags: W
LayerCount: 2
Fore
SplineSet
529 342 m 25,0,-1
 77 367 l 25,1,-1
 71 415 l 25,2,-1
 523 388 l 25,3,-1
 529 342 l 25,0,-1
194 84 m 1049,4,-1
247 613 m 25,5,-1
 298 609 l 25,6,-1
 318 176 l 25,7,-1
 278 182 l 25,8,-1
 247 613 l 25,5,-1
274 597 m 24,9,10
 72 612 72 612 88 395 c 24,11,12
 101 217 101 217 303 202 c 24,13,14
 523 185 523 185 510 364 c 24,15,16
 494 580 494 580 274 597 c 24,9,10
278 625 m 24,17,18
 539 605 539 605 554 350 c 24,19,20
 567 128 567 128 306 147 c 24,21,22
 74 165 74 165 60 387 c 24,23,24
 46 642 46 642 278 625 c 24,17,18
EndSplineSet
Validated: 37
EndChar

StartChar: five
Encoding: 53 53 50
Width: 605
Flags: W
LayerCount: 2
Fore
SplineSet
236.5 689 m 128,-1,1
 227 700 227 700 234.5 724.5 c 128,-1,2
 242 749 242 749 251.5 755.5 c 128,-1,3
 261 762 261 762 287 765.5 c 128,-1,4
 313 769 313 769 323.5 759 c 128,-1,5
 334 749 334 749 332.5 721.5 c 128,-1,6
 331 694 331 694 317 684 c 128,-1,7
 303 674 303 674 274.5 676 c 128,-1,0
 246 678 246 678 236.5 689 c 128,-1,1
529 342 m 25,8,-1
 77 367 l 25,9,-1
 71 415 l 25,10,-1
 523 388 l 25,11,-1
 529 342 l 25,8,-1
194 84 m 1049,12,-1
247 613 m 25,13,-1
 298 609 l 25,14,-1
 318 176 l 25,15,-1
 278 182 l 25,16,-1
 247 613 l 25,13,-1
274 597 m 24,17,18
 72 612 72 612 88 395 c 24,19,20
 101 217 101 217 303 202 c 24,21,22
 523 185 523 185 510 364 c 24,23,24
 494 580 494 580 274 597 c 24,17,18
278 625 m 24,25,26
 539 605 539 605 554 350 c 24,27,28
 567 128 567 128 306 147 c 24,29,30
 74 165 74 165 60 387 c 24,31,32
 46 642 46 642 278 625 c 24,25,26
EndSplineSet
Validated: 37
EndChar

StartChar: six
Encoding: 54 54 51
Width: 605
Flags: W
LayerCount: 2
Fore
SplineSet
318.5 689 m 128,-1,1
 309 700 309 700 316.5 724.5 c 128,-1,2
 324 749 324 749 333.5 755.5 c 128,-1,3
 343 762 343 762 369 765.5 c 128,-1,4
 395 769 395 769 405.5 759 c 128,-1,5
 416 749 416 749 414.5 721.5 c 128,-1,6
 413 694 413 694 399 684 c 128,-1,7
 385 674 385 674 356.5 676 c 128,-1,0
 328 678 328 678 318.5 689 c 128,-1,1
144.5 689 m 128,-1,9
 135 700 135 700 142.5 724.5 c 128,-1,10
 150 749 150 749 159.5 755.5 c 128,-1,11
 169 762 169 762 195 765.5 c 128,-1,12
 221 769 221 769 231.5 759 c 128,-1,13
 242 749 242 749 240.5 721.5 c 128,-1,14
 239 694 239 694 225 684 c 128,-1,15
 211 674 211 674 182.5 676 c 128,-1,8
 154 678 154 678 144.5 689 c 128,-1,9
529 342 m 25,16,-1
 77 367 l 25,17,-1
 71 415 l 25,18,-1
 523 388 l 25,19,-1
 529 342 l 25,16,-1
194 84 m 1049,20,-1
247 613 m 25,21,-1
 298 609 l 25,22,-1
 318 176 l 25,23,-1
 278 182 l 25,24,-1
 247 613 l 25,21,-1
274 597 m 24,25,26
 72 612 72 612 88 395 c 24,27,28
 101 217 101 217 303 202 c 24,29,30
 523 185 523 185 510 364 c 24,31,32
 494 580 494 580 274 597 c 24,25,26
278 625 m 24,33,34
 539 605 539 605 554 350 c 24,35,36
 567 128 567 128 306 147 c 24,37,38
 74 165 74 165 60 387 c 24,39,40
 46 642 46 642 278 625 c 24,33,34
EndSplineSet
Validated: 2085
EndChar

StartChar: seven
Encoding: 55 55 52
Width: 545
Flags: W
LayerCount: 2
Fore
SplineSet
105 555 m 25,0,-1
 415 198 l 25,1,-1
 380 172 l 25,2,-1
 67 518 l 25,3,-1
 105 555 l 25,0,-1
398 543 m 25,4,-1
 87 530 l 25,5,-1
 93 176 l 25,6,-1
 400 186 l 25,7,-1
 398 543 l 25,4,-1
52 131 m 25,8,-1
 44 578 l 25,9,-1
 468 584 l 25,10,-1
 470 145 l 25,11,-1
 52 131 l 25,8,-1
EndSplineSet
Validated: 5
EndChar

StartChar: eight
Encoding: 56 56 53
Width: 545
Flags: W
LayerCount: 2
Fore
SplineSet
91 176 m 25,0,-1
 388 557 l 25,1,-1
 413 541 l 25,2,-1
 124 168 l 25,3,-1
 91 176 l 25,0,-1
263 371 m 25,4,-1
 438 194 l 25,5,-1
 412 177 l 25,6,-1
 232 343 l 25,7,-1
 263 371 l 25,4,-1
423 543 m 25,8,-1
 91 530 l 25,9,-1
 97 176 l 25,10,-1
 425 186 l 25,11,-1
 423 543 l 25,8,-1
56 131 m 25,12,-1
 48 578 l 25,13,-1
 472 584 l 25,14,-1
 474 145 l 25,15,-1
 56 131 l 25,12,-1
EndSplineSet
Validated: 5
EndChar

StartChar: nine
Encoding: 57 57 54
Width: 545
Flags: WO
LayerCount: 2
Fore
SplineSet
87 176 m 25,0,-1
 384 557 l 25,1,-1
 409 543 l 25,2,-1
 120 170 l 25,3,-1
 87 176 l 25,0,-1
105 555 m 25,4,-1
 435 187 l 25,5,-1
 408 177 l 25,6,-1
 74 534 l 25,7,-1
 105 555 l 25,4,-1
419 543 m 25,8,-1
 87 530 l 25,9,-1
 93 176 l 25,10,-1
 421 186 l 25,11,-1
 419 543 l 25,8,-1
52 131 m 25,12,-1
 44 578 l 25,13,-1
 468 584 l 25,14,-1
 470 145 l 25,15,-1
 52 131 l 25,12,-1
EndSplineSet
Validated: 5
EndChar

StartChar: hundred
Encoding: 8588 8588 55
Width: 605
Flags: WO
LayerCount: 2
Fore
SplineSet
236.5 279.5 m 132,-1,1
 227 291 227 291 234.5 315 c 132,-1,2
 242 339 242 339 251.5 345.5 c 132,-1,3
 261 352 261 352 287 355.5 c 132,-1,4
 313 359 313 359 323.5 349 c 132,-1,5
 334 339 334 339 332.5 312 c 132,-1,6
 331 285 331 285 317 274.5 c 132,-1,7
 303 264 303 264 274.5 266 c 132,-1,0
 246 268 246 268 236.5 279.5 c 132,-1,1
441 502 m 29,8,-1
 130 489 l 29,9,-1
 136 135 l 29,10,-1
 443 145 l 29,11,-1
 441 502 l 29,8,-1
95 90 m 29,12,-1
 87 537 l 29,13,-1
 511 543 l 29,14,-1
 513 104 l 29,15,-1
 95 90 l 29,12,-1
EndSplineSet
Validated: 33
EndChar

StartChar: thousand
Encoding: 8589 8589 56
Width: 545
Flags: W
LayerCount: 2
Fore
SplineSet
196.5 597 m 128,-1,1
 187 608 187 608 194.5 632 c 128,-1,2
 202 656 202 656 211.5 663 c 128,-1,3
 221 670 221 670 247 673.5 c 128,-1,4
 273 677 273 677 283.5 666.5 c 128,-1,5
 294 656 294 656 292.5 629 c 128,-1,6
 291 602 291 602 277 592 c 128,-1,7
 263 582 263 582 234.5 584 c 128,-1,0
 206 586 206 586 196.5 597 c 128,-1,1
216 279.5 m 128,-1,9
 207 291 207 291 214 315 c 128,-1,10
 221 339 221 339 231 345.5 c 128,-1,11
 241 352 241 352 267 355.5 c 128,-1,12
 293 359 293 359 303 349 c 128,-1,13
 313 339 313 339 311.5 312 c 128,-1,14
 310 285 310 285 296.5 274.5 c 128,-1,15
 283 264 283 264 254 266 c 128,-1,8
 225 268 225 268 216 279.5 c 128,-1,9
421 502 m 25,16,-1
 110 489 l 25,17,-1
 116 135 l 25,18,-1
 423 145 l 25,19,-1
 421 502 l 25,16,-1
75 90 m 25,20,-1
 67 537 l 25,21,-1
 490 543 l 25,22,-1
 493 104 l 25,23,-1
 75 90 l 25,20,-1
EndSplineSet
Validated: 33
EndChar

StartChar: million
Encoding: 8590 8590 57
Width: 545
Flags: W
LayerCount: 2
Fore
SplineSet
96 338 m 25,0,-1
 426 343 l 25,1,-1
 430 315 l 25,2,-1
 98 314 l 25,3,-1
 96 338 l 25,0,-1
194.5 597 m 128,-1,5
 185 608 185 608 192.5 632 c 128,-1,6
 200 656 200 656 209.5 663 c 128,-1,7
 219 670 219 670 245 673.5 c 128,-1,8
 271 677 271 677 281.5 666.5 c 128,-1,9
 292 656 292 656 290.5 629 c 128,-1,10
 289 602 289 602 275 592 c 128,-1,11
 261 582 261 582 232.5 584 c 128,-1,4
 204 586 204 586 194.5 597 c 128,-1,5
419 502 m 25,12,-1
 108 489 l 25,13,-1
 114 135 l 25,14,-1
 421 145 l 25,15,-1
 419 502 l 25,12,-1
73 90 m 25,16,-1
 65 537 l 25,17,-1
 488 543 l 25,18,-1
 490 104 l 25,19,-1
 73 90 l 25,16,-1
EndSplineSet
Validated: 37
EndChar

StartChar: milliard
Encoding: 8591 8591 58
Width: 546
Flags: W
LayerCount: 2
Fore
SplineSet
311.5 597 m 128,-1,1
 302 608 302 608 309 632 c 128,-1,2
 316 656 316 656 326 663 c 128,-1,3
 336 670 336 670 362 673.5 c 128,-1,4
 388 677 388 677 398.5 666.5 c 128,-1,5
 409 656 409 656 407.5 629 c 128,-1,6
 406 602 406 602 392 592 c 128,-1,7
 378 582 378 582 349.5 584 c 128,-1,0
 321 586 321 586 311.5 597 c 128,-1,1
209 709.5 m 128,-1,9
 200 721 200 721 207 745 c 128,-1,10
 214 769 214 769 223.5 775.5 c 128,-1,11
 233 782 233 782 259.5 786 c 128,-1,12
 286 790 286 790 296 779.5 c 128,-1,13
 306 769 306 769 304.5 742 c 128,-1,14
 303 715 303 715 289 704.5 c 128,-1,15
 275 694 275 694 246.5 696 c 128,-1,8
 218 698 218 698 209 709.5 c 128,-1,9
90 338 m 25,16,-1
 420 343 l 25,17,-1
 424 315 l 25,18,-1
 92 314 l 25,19,-1
 90 338 l 25,16,-1
123 595 m 128,-1,21
 114 606 114 606 121 630 c 128,-1,22
 128 654 128 654 137.5 661 c 128,-1,23
 147 668 147 668 173.5 671.5 c 128,-1,24
 200 675 200 675 210 664.5 c 128,-1,25
 220 654 220 654 218.5 627 c 128,-1,26
 217 600 217 600 203 590 c 128,-1,27
 189 580 189 580 160.5 582 c 128,-1,20
 132 584 132 584 123 595 c 128,-1,21
413 502 m 25,28,-1
 101 489 l 25,29,-1
 108 135 l 25,30,-1
 415 145 l 25,31,-1
 413 502 l 25,28,-1
67 90 m 25,32,-1
 58 537 l 25,33,-1
 482 543 l 25,34,-1
 484 104 l 25,35,-1
 67 90 l 25,32,-1
EndSplineSet
Validated: 37
EndChar

StartChar: billion
Encoding: 8592 8592 59
Width: 629
Flags: W
LayerCount: 2
Fore
SplineSet
91 356 m 25,0,-1
 104 341 l 25,1,-1
 89 330 l 25,2,-1
 72 346 l 25,3,-1
 91 356 l 25,0,-1
115 369 m 0,4,5
 76 406 76 406 51 355 c 0,6,7
 34 323 34 323 56 309 c 24,8,9
 80 294 80 294 113 308 c 0,10,11
 159 330 159 330 115 369 c 0,4,5
180 348 m 25,12,-1
 510 353 l 25,13,-1
 514 326 l 25,14,-1
 182 325 l 25,15,-1
 180 348 l 25,12,-1
28 301 m 0,16,17
 16 314 16 314 26 344 c 0,18,19
 35 373 35 373 46 382 c 0,20,21
 58 390 58 390 90 395 c 0,22,23
 122 400 122 400 134.5 387 c 128,-1,24
 147 374 147 374 146 341 c 0,25,26
 144 308 144 308 127 295 c 0,27,28
 110 282 110 282 75 285 c 0,29,30
 40 287 40 287 28 301 c 0,16,17
503 512 m 25,31,-1
 191 500 l 25,32,-1
 198 145 l 25,33,-1
 505 156 l 25,34,-1
 503 512 l 25,31,-1
157 100 m 25,35,-1
 148 547 l 25,36,-1
 572 553 l 25,37,-1
 574 115 l 25,38,-1
 157 100 l 25,35,-1
EndSplineSet
Validated: 37
EndChar

StartChar: billiard
Encoding: 8593 8593 60
Width: 621
Flags: W
LayerCount: 2
Fore
SplineSet
323 514 m 25,0,-1
 351 515 l 25,1,-1
 370 142 l 25,2,-1
 346 146 l 25,3,-1
 323 514 l 25,0,-1
91 356 m 25,4,-1
 104 341 l 25,5,-1
 89 330 l 25,6,-1
 72 346 l 25,7,-1
 91 356 l 25,4,-1
115 369 m 0,8,9
 78 404 78 404 51 355 c 0,10,11
 34 323 34 323 56 309 c 24,12,13
 82 293 82 293 113 308 c 0,14,15
 158 329 158 329 115 369 c 0,8,9
180 348 m 25,16,-1
 510 353 l 25,17,-1
 514 326 l 25,18,-1
 182 325 l 25,19,-1
 180 348 l 25,16,-1
28 301 m 0,20,21
 16 314 16 314 26 344 c 0,22,23
 35 373 35 373 46 382 c 0,24,25
 58 390 58 390 90 395 c 0,26,27
 122 400 122 400 134.5 387 c 128,-1,28
 147 374 147 374 146 341 c 0,29,30
 144 308 144 308 127 295 c 0,31,32
 110 282 110 282 75 285 c 0,33,34
 40 287 40 287 28 301 c 0,20,21
503 512 m 25,35,-1
 191 500 l 25,36,-1
 198 145 l 25,37,-1
 505 156 l 25,38,-1
 503 512 l 25,35,-1
157 100 m 25,39,-1
 148 547 l 25,40,-1
 572 553 l 25,41,-1
 574 115 l 25,42,-1
 157 100 l 25,39,-1
EndSplineSet
Validated: 2085
EndChar

StartChar: arrowright
Encoding: 8594 8594 61
Width: 732
Flags: W
LayerCount: 2
Fore
SplineSet
361 102 m 25,0,-1
 374 87 l 25,1,-1
 359 76 l 25,2,-1
 343 92 l 25,3,-1
 361 102 l 25,0,-1
385 115 m 0,4,5
 346 152 346 152 322 101 c 0,6,7
 305 69 305 69 326 55 c 24,8,9
 350 40 350 40 384 54 c 0,10,11
 429 76 429 76 385 115 c 0,4,5
298.5 47 m 128,-1,13
 287 61 287 61 296 90.5 c 128,-1,14
 305 120 305 120 317 128 c 128,-1,15
 329 136 329 136 361 140.5 c 128,-1,16
 393 145 393 145 405.5 132.5 c 128,-1,17
 418 120 418 120 416 86.5 c 128,-1,18
 414 53 414 53 397 40.5 c 128,-1,19
 380 28 380 28 345 30.5 c 128,-1,12
 310 33 310 33 298.5 47 c 128,-1,13
337 643 m 25,20,-1
 349 628 l 25,21,-1
 334 617 l 25,22,-1
 318 633 l 25,23,-1
 337 643 l 25,20,-1
361 656 m 0,24,25
 324 691 324 691 297 641 c 0,26,27
 280 609 280 609 302 595 c 24,28,29
 328 579 328 579 359 595 c 0,30,31
 404 616 404 616 361 656 c 0,24,25
274 588 m 0,32,33
 262 601 262 601 271 631 c 0,34,35
 280 660 280 660 292 669 c 0,36,37
 304 677 304 677 336 682 c 0,38,39
 368 687 368 687 380.5 673.5 c 128,-1,40
 393 660 393 660 392 627 c 0,41,42
 390 594 390 594 373 581 c 0,43,44
 356 568 356 568 320 571 c 0,45,46
 286 574 286 574 274 588 c 0,32,33
635 387 m 25,47,-1
 647 372 l 25,48,-1
 632 361 l 25,49,-1
 616 377 l 25,50,-1
 635 387 l 25,47,-1
658 399 m 0,51,52
 621 433 621 433 596 385 c 0,53,54
 579 353 579 353 600 340 c 24,55,56
 625 325 625 325 657 339 c 0,57,58
 699 360 699 360 658 399 c 0,51,52
573 332 m 0,59,60
 562 346 562 346 570 375 c 0,61,62
 579 404 579 404 591 412 c 0,63,64
 603 420 603 420 634 425 c 0,65,66
 665 429 665 429 678 417 c 0,67,68
 690 405 690 405 689 371 c 0,69,70
 687 338 687 338 670 326 c 0,71,72
 653 313 653 313 619 316 c 0,73,74
 584 318 584 318 573 332 c 0,59,60
323 545 m 25,75,-1
 351 546 l 25,76,-1
 370 173 l 25,77,-1
 346 177 l 25,78,-1
 323 545 l 25,75,-1
100 387 m 25,79,-1
 113 372 l 25,80,-1
 98 361 l 25,81,-1
 82 377 l 25,82,-1
 100 387 l 25,79,-1
124 399 m 0,83,84
 87 433 87 433 61 385 c 0,85,86
 44 353 44 353 66 340 c 24,87,88
 91 325 91 325 122 339 c 0,89,90
 167 360 167 360 124 399 c 0,83,84
180 379 m 25,91,-1
 510 384 l 25,92,-1
 514 356 l 25,93,-1
 182 355 l 25,94,-1
 180 379 l 25,91,-1
38 332 m 0,95,96
 27 346 27 346 36 375 c 0,97,98
 45 404 45 404 56 412 c 0,99,100
 68 420 68 420 100 425 c 0,101,102
 131 429 131 429 144 417 c 0,103,104
 156 405 156 405 154 371 c 0,105,106
 152 338 152 338 136 326 c 0,107,108
 119 313 119 313 84 316 c 0,109,110
 49 318 49 318 38 332 c 0,95,96
503 543 m 25,111,-1
 191 530 l 25,112,-1
 198 176 l 25,113,-1
 505 186 l 25,114,-1
 503 543 l 25,111,-1
157 131 m 25,115,-1
 148 578 l 25,116,-1
 572 584 l 25,117,-1
 574 145 l 25,118,-1
 157 131 l 25,115,-1
EndSplineSet
Validated: 2085
EndChar

StartChar: arrowdown
Encoding: 8595 8595 62
Width: 437
Flags: W
LayerCount: 2
Fore
SplineSet
314 489 m 25,0,-1
 327 473 l 25,1,-1
 311 461 l 25,2,-1
 294 479 l 25,3,-1
 314 489 l 25,0,-1
339 503 m 0,4,5
 299 540 299 540 272 487 c 0,6,7
 254 453 254 453 276 439 c 24,8,9
 301 423 301 423 337 439 c 0,10,11
 386 462 386 462 339 503 c 0,4,5
247 431 m 128,-1,13
 235 446 235 446 244.5 477 c 128,-1,14
 254 508 254 508 266.5 516.5 c 128,-1,15
 279 525 279 525 313 530 c 128,-1,16
 347 535 347 535 360.5 521.5 c 128,-1,17
 374 508 374 508 372 473 c 128,-1,18
 370 438 370 438 352 424.5 c 128,-1,19
 334 411 334 411 296.5 413.5 c 128,-1,12
 259 416 259 416 247 431 c 128,-1,13
319 634 m 25,20,-1
 332 618 l 25,21,-1
 316 606 l 25,22,-1
 299 623 l 25,23,-1
 319 634 l 25,20,-1
344 647 m 0,24,25
 304 684 304 684 277 632 c 0,26,27
 259 598 259 598 281 583 c 24,28,29
 307 567 307 567 342 583 c 0,30,31
 389 605 389 605 344 647 c 0,24,25
252 575 m 0,32,33
 240 590 240 590 250 621 c 0,34,35
 260 652 260 652 271 661 c 0,36,37
 283 670 283 670 318 674 c 0,38,39
 352 678 352 678 365 666 c 0,40,41
 379 653 379 653 377 617 c 0,42,43
 375 581 375 581 357 569 c 0,44,45
 339 555 339 555 301 558 c 0,46,47
 264 560 264 560 252 575 c 0,32,33
170 644 m 25,48,-1
 184 628 l 25,49,-1
 168 616 l 25,50,-1
 150 633 l 25,51,-1
 170 644 l 25,48,-1
196 657 m 0,52,53
 156 694 156 694 128 642 c 0,54,55
 110 608 110 608 133 593 c 24,56,57
 159 577 159 577 194 593 c 0,58,59
 241 615 241 615 196 657 c 0,52,53
104 585 m 0,60,61
 92 600 92 600 101 631 c 0,62,63
 111 662 111 662 123 671 c 0,64,65
 135 680 135 680 170 685 c 0,66,67
 204 689 204 689 217 676 c 0,68,69
 231 663 231 663 228 627 c 0,70,71
 226 591 226 591 208 579 c 0,72,73
 190 565 190 565 153 568 c 0,74,75
 116 570 116 570 104 585 c 0,60,61
315 140 m 25,76,-1
 328 124 l 25,77,-1
 312 112 l 25,78,-1
 295 130 l 25,79,-1
 315 140 l 25,76,-1
340 154 m 0,80,81
 300 191 300 191 273 138 c 0,82,83
 255 104 255 104 277 90 c 24,84,85
 303 74 303 74 338 89 c 0,86,87
 385 112 385 112 340 154 c 0,80,81
248 82 m 0,88,89
 236 97 236 97 245 128 c 0,90,91
 255 159 255 159 267 168 c 0,92,93
 279 177 279 177 314 181 c 0,94,95
 348 185 348 185 361 172 c 0,96,97
 375 159 375 159 373 124 c 0,98,99
 371 88 371 88 353 75 c 0,100,101
 335 61 335 61 297 64 c 0,102,103
 260 67 260 67 248 82 c 0,88,89
149 146 m 25,104,-1
 162 130 l 25,105,-1
 146 118 l 25,106,-1
 129 136 l 25,107,-1
 149 146 l 25,104,-1
174 160 m 0,108,109
 134 197 134 197 107 144 c 0,110,111
 89 110 89 110 111 96 c 24,112,113
 137 80 137 80 172 95 c 0,114,115
 219 118 219 118 174 160 c 0,108,109
82 88 m 0,116,117
 70 103 70 103 80 134 c 0,118,119
 90 165 90 165 102 174 c 0,120,121
 114 183 114 183 148 187 c 0,122,123
 182 191 182 191 195 178 c 0,124,125
 209 165 209 165 207 130 c 0,126,127
 205 94 205 94 187 81 c 0,128,129
 169 67 169 67 131 71 c 0,130,131
 94 73 94 73 82 88 c 0,116,117
131 280 m 25,132,-1
 145 264 l 25,133,-1
 129 252 l 25,134,-1
 111 269 l 25,135,-1
 131 280 l 25,132,-1
157 293 m 0,136,137
 117 330 117 330 89 278 c 0,138,139
 71 244 71 244 94 229 c 24,140,141
 120 213 120 213 155 229 c 0,142,143
 202 251 202 251 157 293 c 0,136,137
65 221 m 0,144,145
 53 236 53 236 62 267 c 0,146,147
 72 298 72 298 84 307 c 0,148,149
 96 316 96 316 131 320 c 0,150,151
 165 324 165 324 178 311 c 0,152,153
 192 298 192 298 189 263 c 0,154,155
 187 227 187 227 169 214 c 0,156,157
 151 200 151 200 114 204 c 0,158,159
 77 206 77 206 65 221 c 0,144,145
367 360 m 25,160,-1
 242 355 l 25,161,-1
 245 213 l 25,162,-1
 368 217 l 25,163,-1
 367 360 l 25,160,-1
228 195 m 25,164,-1
 225 374 l 25,165,-1
 395 376 l 25,166,-1
 395 201 l 25,167,-1
 228 195 l 25,164,-1
193 536 m 25,168,-1
 68 531 l 25,169,-1
 71 389 l 25,170,-1
 194 393 l 25,171,-1
 193 536 l 25,168,-1
54 371 m 25,172,-1
 51 550 l 25,173,-1
 221 552 l 25,174,-1
 221 377 l 25,175,-1
 54 371 l 25,172,-1
EndSplineSet
Validated: 3105
EndChar
